SplineFontDB: 3.0
FontName: Topmarks-Bold
FullName: Topmarks Bold
FamilyName: Topmarks
Weight: Medium
Copyright: Copyright (c) 2012-13 by vernon adams. All rights reserved.
Version: 
ItalicAngle: 0
UnderlinePosition: 0
UnderlineWidth: 0
Ascent: 800
Descent: 200
UFOAscent: 957.031
UFODescent: -320.312
LayerCount: 2
Layer: 0 0 "Back"  1
Layer: 1 0 "Fore"  0
FSType: 1
OS2Version: 0
OS2_WeightWidthSlopeOnly: 0
OS2_UseTypoMetrics: 0
CreationTime: 1369860236
ModificationTime: 1369860696
PfmFamily: 0
TTFWeight: 700
TTFWidth: 5
LineGap: 0
VLineGap: 0
OS2TypoAscent: 0
OS2TypoAOffset: 1
OS2TypoDescent: 0
OS2TypoDOffset: 1
OS2TypoLinegap: 0
OS2WinAscent: 736
OS2WinAOffset: 0
OS2WinDescent: 264
OS2WinDOffset: 0
HheadAscent: 0
HheadAOffset: 1
HheadDescent: 0
HheadDOffset: 1
OS2Vendor: 'newt'
Lookup: 258 0 0 "kernHorizontalKerninginLatinloo"  {"kernHorizontalKerninginLatinloo kerning class 0"  "kernHorizontalKerninginLatinloo per glyph data 1"  } ['kern' ('latn' <'dflt' > ) ]
Lookup: 260 0 0 "markMarkPositioninglookup0"  {"markMarkPositioninglookup0 subtable"  } []
MarkAttachClasses: 1
DEI: 91125
KernClass2: 16 21 "kernHorizontalKerninginLatinloo kerning class 0" 
 89 A Aacute Abreve Acircumflex Adieresis Agrave Amacron Aogonek Aring Atilde uni0200 uni0202
 1 D
 1 F
 14 G Gcommaaccent
 1 K
 1 L
 1 P
 44 R Racute Rcaron Rcommaaccent uni0210 uni0212
 9 T uni021A
 1 V
 1 W
 18 Y Yacute Ydieresis
 24 c cacute ccaron ccedilla
 60 o oacute ocircumflex odieresis ograve otilde uni020D uni020F
 37 r rcaron rcommaaccent uni0211 uni0213
 89 A Aacute Abreve Acircumflex Adieresis Agrave Amacron Aogonek Aring Atilde uni0200 uni0202
 24 C Cacute Ccaron Ccedilla
 14 G Gcommaaccent
 60 O Oacute Ocircumflex Odieresis Ograve Otilde uni020C uni020E
 9 T uni021A
 1 V
 1 W
 18 Y Yacute Ydieresis

StartChar: A
Encoding: 65 65 1
Width: 687
VWidth: 0
GlyphClass: 2
Flags: W
HStem: 0 21G<24 164.707 516.537 663> 164 96<246 438> 691 20G<279.602 411.286>
AnchorPoint: "ogonek" 615 0 basechar 0
AnchorPoint: "bottom" 359 0 basechar 0
AnchorPoint: "top" 343 750 basechar 0
LayerCount: 2
UndoRedoHistory
Layer: 0
Undoes
EndUndoes
Redoes
EndRedoes
EndUndoRedoHistory
UndoRedoHistory
Layer: 1
Undoes
EndUndoes
Redoes
EndRedoes
EndUndoRedoHistory
Fore
SplineSet
24 0 m 1
 287 711 l 1
 404 711 l 1
 663 0 l 1
 523 0 l 1
 470 164 l 1
 213 164 l 1
 158 0 l 1
 24 0 l 1
246 260 m 1
 438 260 l 1
 404 370 l 1
 343 551 l 1
 282 370 l 1
 246 260 l 1
EndSplineSet
EndChar

StartChar: AE
Encoding: 198 198 2
Width: 1005
VWidth: 0
GlyphClass: 2
Flags: W
HStem: 0 90<663 941> 185 89<292 522> 316 85<644 910> 616 95<486 493 614 930>
LayerCount: 2
UndoRedoHistory
Layer: 0
Undoes
EndUndoes
Redoes
EndRedoes
EndUndoRedoHistory
UndoRedoHistory
Layer: 1
Undoes
EndUndoes
Redoes
EndRedoes
EndUndoRedoHistory
Fore
SplineSet
9 0 m 1
 416 711 l 1
 930 711 l 1
 930 616 l 1
 614 616 l 1
 633 401 l 1
 910 401 l 1
 910 316 l 1
 644 316 l 1
 663 90 l 1
 941 90 l 1
 941 0 l 1
 546 0 l 1
 531 185 l 1
 253 185 l 1
 149 0 l 1
 9 0 l 1
292 274 m 1
 522 274 l 1
 493 616 l 1
 486 616 l 1
 292 274 l 1
EndSplineSet
EndChar

StartChar: B
Encoding: 66 66 12
Width: 672
VWidth: 0
GlyphClass: 2
Flags: W
HStem: 0 98<216 451.467> 324 90<216 428.789> 613 98<216 434.328>
VStem: 94 122<98 324 414 613> 472 118<452.456 578.623> 500 120<140.604 280.747>
AnchorPoint: "bottom" 330 0 basechar 0
AnchorPoint: "top" 342 750 basechar 0
LayerCount: 2
UndoRedoHistory
Layer: 0
Undoes
EndUndoes
Redoes
EndRedoes
EndUndoRedoHistory
UndoRedoHistory
Layer: 1
Undoes
EndUndoes
Redoes
EndRedoes
EndUndoRedoHistory
Fore
SplineSet
94 0 m 1xf4
 94 711 l 1
 312 711 l 2
 499 711 590 661 590 541 c 0xf8
 590 453 556 405 475 382 c 1
 577 365 620 311 620 207 c 0
 620 64 529 0 343 0 c 2
 94 0 l 1xf4
216 98 m 1
 345 98 l 2
 454 98 500 132 500 213 c 0xf4
 500 290 451 324 337 324 c 2
 216 324 l 1
 216 98 l 1
216 414 m 1
 323 414 l 2
 428 414 472 446 472 522 c 0xf8
 472 587 426 613 317 613 c 2
 216 613 l 1
 216 414 l 1
EndSplineSet
EndChar

StartChar: C
Encoding: 67 67 13
Width: 668
VWidth: 0
GlyphClass: 2
Flags: W
HStem: -12 102<318.626 521.768> 621 102<315.483 503.934>
VStem: 57 130<233.527 481.467>
AnchorPoint: "bottom" 403 0 basechar 0
AnchorPoint: "top" 386 750 basechar 0
LayerCount: 2
UndoRedoHistory
Layer: 0
Undoes
EndUndoes
Redoes
EndRedoes
EndUndoRedoHistory
UndoRedoHistory
Layer: 1
Undoes
EndUndoes
Redoes
EndRedoes
EndUndoRedoHistory
Fore
SplineSet
402 -12 m 0
 198 -12 57 140 57 358 c 0
 57 579 203 723 408 723 c 0
 481 723 563 694 623 648 c 1
 580 555 l 1
 543 585 474 621 409 621 c 0
 267 621 187 510 187 357 c 0
 187 204 267 90 416 90 c 0
 475 90 544 113 592 152 c 1
 630 61 l 1
 577 18 479 -12 402 -12 c 0
EndSplineSet
EndChar

StartChar: D
Encoding: 68 68 17
Width: 757
VWidth: 0
GlyphClass: 2
Flags: W
HStem: 0 98<216 437.136> 613 98<216 429.355>
VStem: 94 122<98 613> 571 130<226.077 484.501>
AnchorPoint: "bottom" 330 0 basechar 0
AnchorPoint: "top" 342 750 basechar 0
LayerCount: 2
UndoRedoHistory
Layer: 0
Undoes
EndUndoes
Redoes
EndRedoes
EndUndoRedoHistory
UndoRedoHistory
Layer: 1
Undoes
EndUndoes
Redoes
EndRedoes
EndUndoRedoHistory
Fore
SplineSet
216 98 m 1
 295 98 l 2
 499 98 571 182 571 361 c 0
 571 533 493 613 275 613 c 2
 216 613 l 1
 216 98 l 1
94 0 m 1
 94 711 l 1
 259 711 l 2
 549 711 701 605 701 362 c 0
 701 110 563 0 287 0 c 2
 94 0 l 1
EndSplineSet
EndChar

StartChar: Delta
Encoding: 916 916 18
Width: 1134
VWidth: 0
GlyphClass: 2
Flags: W
HStem: 0 93<171 609>
LayerCount: 2
UndoRedoHistory
Layer: 0
Undoes
EndUndoes
Redoes
EndRedoes
EndUndoRedoHistory
UndoRedoHistory
Layer: 1
Undoes
EndUndoes
Redoes
EndRedoes
EndUndoRedoHistory
Fore
SplineSet
40 0 m 1
 40 46 l 1
 338 819 l 1
 442 819 l 1
 741 46 l 1
 741 0 l 1
 40 0 l 1
171 93 m 1
 609 93 l 1
 407 637 l 1
 387 698 l 1
 369 637 l 1
 171 93 l 1
EndSplineSet
EndChar

StartChar: E
Encoding: 69 69 19
Width: 588
VWidth: 0
GlyphClass: 2
Flags: W
HStem: 0 98<216 522> 317 95<216 492> 613 98<216 513>
VStem: 94 122<98 317 412 613>
AnchorPoint: "ogonek" 415 0 basechar 0
AnchorPoint: "bottom" 403 0 basechar 0
AnchorPoint: "top" 320 750 basechar 0
LayerCount: 2
UndoRedoHistory
Layer: 0
Undoes
EndUndoes
Redoes
EndRedoes
EndUndoRedoHistory
UndoRedoHistory
Layer: 1
Undoes
EndUndoes
Redoes
EndRedoes
EndUndoRedoHistory
Fore
SplineSet
94 0 m 1
 94 711 l 1
 513 711 l 1
 513 613 l 1
 216 613 l 1
 216 412 l 1
 492 412 l 1
 492 317 l 1
 216 317 l 1
 216 98 l 1
 522 98 l 1
 522 0 l 1
 94 0 l 1
EndSplineSet
EndChar

StartChar: Euro
Encoding: 8364 8364 27
Width: 668
VWidth: 0
GlyphClass: 2
Flags: W
HStem: -12 102<333.626 536.768> 228 79<9 107 169 488> 397 80<8 107 169 507> 621 102<330.483 518.934>
VStem: 72 130<233.527 481.467> 107 62<307 397>
LayerCount: 2
UndoRedoHistory
Layer: 0
Undoes
EndUndoes
Redoes
EndRedoes
EndUndoRedoHistory
UndoRedoHistory
Layer: 1
Undoes
EndUndoes
Redoes
EndRedoes
EndUndoRedoHistory
Fore
SplineSet
488 228 m 1xf4
 -2 228 l 1
 9 307 l 1
 107 307 l 1
 107 397 l 1
 -4 397 l 1
 8 477 l 1
 519 477 l 1
 507 397 l 1
 169 397 l 1
 169 307 l 1
 500 307 l 1
 488 228 l 1xf4
EndSplineSet
Refer: 13 67 N 1 0 0 1 15 0 2
EndChar

StartChar: F
Encoding: 70 70 28
Width: 564
VWidth: 0
GlyphClass: 2
Flags: W
HStem: 0 21G<94 216> 328 94<216 488> 613 98<216 504>
VStem: 94 122<0 328 422 613>
AnchorPoint: "bottom" 330 0 basechar 0
AnchorPoint: "top" 342 750 basechar 0
LayerCount: 2
UndoRedoHistory
Layer: 0
Undoes
EndUndoes
Redoes
EndRedoes
EndUndoRedoHistory
UndoRedoHistory
Layer: 1
Undoes
EndUndoes
Redoes
EndRedoes
EndUndoRedoHistory
Fore
SplineSet
94 0 m 1
 94 711 l 1
 504 711 l 1
 504 613 l 1
 216 613 l 1
 216 422 l 1
 488 422 l 1
 488 328 l 1
 216 328 l 1
 216 0 l 1
 94 0 l 1
EndSplineSet
EndChar

StartChar: G
Encoding: 71 71 29
Width: 730
VWidth: 0
GlyphClass: 2
Flags: W
HStem: -12 102<314.759 533.806> 291 86<363 535> 621 102<323.928 533.404>
VStem: 57 130<226.295 465.965> 535 119<103.335 291>
AnchorPoint: "bottom" 403 0 basechar 0
AnchorPoint: "top" 386 750 basechar 0
LayerCount: 2
UndoRedoHistory
Layer: 0
Undoes
EndUndoes
Redoes
EndRedoes
EndUndoRedoHistory
UndoRedoHistory
Layer: 1
Undoes
EndUndoes
Redoes
EndRedoes
EndUndoRedoHistory
Fore
SplineSet
408 -12 m 0
 199 -12 57 125 57 335 c 0
 57 565 206 723 419 723 c 0
 538 723 605 685 646 660 c 1
 604 567 l 1
 578 581 505 621 423 621 c 0
 275 621 187 504 187 342 c 0
 187 191 274 90 414 90 c 0
 460 90 504 97 535 111 c 1
 535 291 l 1
 363 291 l 1
 363 377 l 1
 654 377 l 1
 654 38 l 1
 590 8 491 -12 408 -12 c 0
EndSplineSet
EndChar

StartChar: H
Encoding: 72 72 31
Width: 758
VWidth: 0
GlyphClass: 2
Flags: W
HStem: 0 21G<94 216 542 665> 310 105<216 542> 691 20G<94 216 542 665>
VStem: 94 122<0 310 415 711> 542 123<0 310 415 711>
AnchorPoint: "bottom" 385 0 basechar 0
AnchorPoint: "top" 387 750 basechar 0
LayerCount: 2
UndoRedoHistory
Layer: 0
Undoes
EndUndoes
Redoes
EndRedoes
EndUndoRedoHistory
UndoRedoHistory
Layer: 1
Undoes
EndUndoes
Redoes
EndRedoes
EndUndoRedoHistory
Fore
SplineSet
94 0 m 1
 94 711 l 1
 216 711 l 1
 216 415 l 1
 542 415 l 1
 542 711 l 1
 665 711 l 1
 665 0 l 1
 542 0 l 1
 542 310 l 1
 216 310 l 1
 216 0 l 1
 94 0 l 1
EndSplineSet
EndChar

StartChar: I
Encoding: 73 73 32
Width: 391
VWidth: 0
GlyphClass: 2
Flags: W
HStem: 0 89<50 135 257 342> 622 89<50 135 257 342>
VStem: 135 122<89 622>
AnchorPoint: "bottom" 140 0 basechar 0
AnchorPoint: "top" 141 750 basechar 0
LayerCount: 2
UndoRedoHistory
Layer: 0
Undoes
EndUndoes
Redoes
EndRedoes
EndUndoRedoHistory
UndoRedoHistory
Layer: 1
Undoes
EndUndoes
Redoes
EndRedoes
EndUndoRedoHistory
Fore
SplineSet
342 0 m 1
 50 0 l 1
 50 89 l 1
 135 89 l 1
 135 622 l 1
 50 622 l 1
 50 711 l 1
 342 711 l 1
 342 622 l 1
 257 622 l 1
 257 89 l 1
 342 89 l 1
 342 0 l 1
EndSplineSet
EndChar

StartChar: J
Encoding: 74 74 41
Width: 550
VWidth: 0
GlyphClass: 2
Flags: W
HStem: -12 102<118.249 255.087> 613 98<118 295 414 542>
VStem: 295 119<132.633 613>
AnchorPoint: "top" 269 750 basechar 0
LayerCount: 2
UndoRedoHistory
Layer: 0
Undoes
EndUndoes
Redoes
EndRedoes
EndUndoRedoHistory
UndoRedoHistory
Layer: 1
Undoes
EndUndoes
Redoes
EndRedoes
EndUndoRedoHistory
Fore
SplineSet
12 71 m 1
 69 151 l 1
 109 106 155 89 196 90 c 0
 252 92 295 131 295 209 c 2
 295 613 l 1
 118 613 l 1
 118 711 l 1
 542 711 l 1
 542 613 l 1
 414 613 l 1
 414 218 l 2
 414 61 314 -12 205 -12 c 0
 129 -12 65 10 12 71 c 1
EndSplineSet
EndChar

StartChar: K
Encoding: 75 75 44
Width: 627
VWidth: 0
GlyphClass: 2
Flags: W
HStem: 0 21G<94 216 458.505 629> 691 20G<94 216 448 613>
VStem: 94 122<0 333 401 711>
AnchorPoint: "bottom" 354 0 basechar 0
AnchorPoint: "top" 326 750 basechar 0
LayerCount: 2
UndoRedoHistory
Layer: 0
Undoes
EndUndoes
Redoes
EndRedoes
EndUndoRedoHistory
UndoRedoHistory
Layer: 1
Undoes
EndUndoes
Redoes
EndRedoes
EndUndoRedoHistory
Fore
SplineSet
94 0 m 1
 94 711 l 1
 216 711 l 1
 216 401 l 1
 464 711 l 1
 613 711 l 1
 332 377 l 1
 629 0 l 1
 474 0 l 1
 216 333 l 1
 216 0 l 1
 94 0 l 1
EndSplineSet
EndChar

StartChar: L
Encoding: 76 76 45
Width: 526
VWidth: 0
GlyphClass: 2
Flags: W
HStem: 0 98<216 512> 691 20G<94 216>
VStem: 94 122<98 711>
AnchorPoint: "bottom" 340 0 basechar 0
AnchorPoint: "top" 283 750 basechar 0
LayerCount: 2
UndoRedoHistory
Layer: 0
Undoes
EndUndoes
Redoes
EndRedoes
EndUndoRedoHistory
UndoRedoHistory
Layer: 1
Undoes
EndUndoes
Redoes
EndRedoes
EndUndoRedoHistory
Fore
SplineSet
94 0 m 1
 94 711 l 1
 216 711 l 1
 216 98 l 1
 512 98 l 1
 512 0 l 1
 94 0 l 1
EndSplineSet
EndChar

StartChar: Lslash
Encoding: 321 321 47
Width: 967
VWidth: 0
GlyphClass: 2
Flags: W
HStem: 0 85<224 625>
VStem: 125 99<85 347 487 835>
LayerCount: 2
UndoRedoHistory
Layer: 0
Undoes
EndUndoes
Redoes
EndRedoes
EndUndoRedoHistory
UndoRedoHistory
Layer: 1
Undoes
EndUndoes
Redoes
EndRedoes
EndUndoRedoHistory
Fore
SplineSet
125 0 m 1
 125 347 l 1
 18 280 l 1
 18 359 l 1
 125 425 l 1
 125 835 l 1
 224 835 l 1
 224 487 l 1
 387 589 l 1
 387 510 l 1
 224 408 l 1
 224 85 l 1
 625 85 l 1
 625 0 l 1
 125 0 l 1
EndSplineSet
EndChar

StartChar: M
Encoding: 77 77 48
Width: 922
VWidth: 0
GlyphClass: 2
Flags: W
HStem: 0 21G<94 216 707 829> 691 20G<94 247.544 675.31 829>
VStem: 94 122<0 538> 707 122<0 530>
AnchorPoint: "bottom" 477 0 basechar 0
AnchorPoint: "top" 474 750 basechar 0
LayerCount: 2
UndoRedoHistory
Layer: 0
Undoes
EndUndoes
Redoes
EndRedoes
EndUndoRedoHistory
UndoRedoHistory
Layer: 1
Undoes
EndUndoes
Redoes
EndRedoes
EndUndoRedoHistory
Fore
SplineSet
94 0 m 1
 94 711 l 1
 237 711 l 1
 421 362 l 1
 461 278 l 1
 500 363 l 1
 686 711 l 1
 829 711 l 1
 829 0 l 1
 707 0 l 1
 707 530 l 1
 655 425 l 1
 488 112 l 1
 433 112 l 1
 267 431 l 1
 216 538 l 1
 216 0 l 1
 94 0 l 1
EndSplineSet
EndChar

StartChar: N
Encoding: 78 78 49
Width: 789
VWidth: 0
GlyphClass: 2
Flags: W
HStem: 0 21G<94 201 552.552 696> 691 20G<94 234.567 588 696>
VStem: 94 107<0 543> 588 108<166 711>
AnchorPoint: "bottom" 393 0 basechar 0
AnchorPoint: "top" 395 750 basechar 0
LayerCount: 2
UndoRedoHistory
Layer: 0
Undoes
EndUndoes
Redoes
EndRedoes
EndUndoRedoHistory
UndoRedoHistory
Layer: 1
Undoes
EndUndoes
Redoes
EndRedoes
EndUndoRedoHistory
Fore
SplineSet
94 0 m 1
 94 711 l 1
 221 711 l 1
 531 254 l 1
 588 166 l 1
 588 711 l 1
 696 711 l 1
 696 0 l 1
 566 0 l 1
 254 464 l 1
 201 543 l 1
 201 0 l 1
 94 0 l 1
EndSplineSet
EndChar

StartChar: O
Encoding: 79 79 52
Width: 777
VWidth: 0
GlyphClass: 2
Flags: W
HStem: -12 102<300.552 474.262> 621 102<300.552 474.262>
VStem: 57 130<229.072 484.04> 591 130<229.072 479.68>
AnchorPoint: "bottom" 403 0 basechar 0
AnchorPoint: "top" 386 750 basechar 0
LayerCount: 2
UndoRedoHistory
Layer: 0
Undoes
EndUndoes
Redoes
EndRedoes
EndUndoRedoHistory
UndoRedoHistory
Layer: 1
Undoes
EndUndoes
Redoes
EndRedoes
EndUndoRedoHistory
Fore
SplineSet
387 90 m 0
 508 90 591 196 591 354 c 1
 591 515 508 621 387 621 c 0
 266 621 187 515 187 354 c 0
 187 196 266 90 387 90 c 0
387 -12 m 0
 194 -12 57 134 57 354 c 0
 57 572 194 723 387 723 c 0
 582 723 721 572 721 354 c 0
 721 134 582 -12 387 -12 c 0
EndSplineSet
EndChar

StartChar: OE
Encoding: 338 338 53
Width: 1727
VWidth: 0
GlyphClass: 2
Flags: W
HStem: -20 85<377.057 574.896> -7 85<739 1092> 379 84<739 1054> 743 85<739 1076> 759 85<379.846 586.113>
VStem: 103 105<258.672 552.891> 650 89<123.732 379 463 709.744>
LayerCount: 2
UndoRedoHistory
Layer: 0
Undoes
EndUndoes
Redoes
EndRedoes
EndUndoRedoHistory
UndoRedoHistory
Layer: 1
Undoes
EndUndoes
Redoes
EndRedoes
EndUndoRedoHistory
Fore
SplineSet
483 -20 m 0xa6
 300 -20 184 82 131 233 c 0
 112 286 103 346 103 412 c 0
 103 615 198 750 329 811 c 0
 375 833 428 844 487 844 c 0xae
 555 844 608 818 650 785 c 1
 650 828 l 1
 1076 828 l 1
 1076 743 l 1
 739 743 l 1
 739 463 l 1
 1054 463 l 1
 1054 379 l 1
 739 379 l 1
 739 78 l 1
 1092 78 l 1
 1092 -7 l 1
 650 -7 l 1x76
 650 54 l 1
 608 12 556 -20 483 -20 c 0xa6
482 65 m 0
 557 65 611 101 650 146 c 1
 650 692 l 1
 609 732 557 759 483 759 c 0
 388 759 321 713 278 653 c 0
 236 594 208 510 208 409 c 0
 208 253 265 142 363 92 c 0
 397 74 437 65 482 65 c 0
EndSplineSet
EndChar

StartChar: Oslash
Encoding: 216 216 58
Width: 772
VWidth: 0
GlyphClass: 2
Flags: W
HStem: -12 102<300.552 474.262> 621 102<300.552 474.262>
VStem: 57 130<229.072 484.04> 591 130<229.072 479.68>
LayerCount: 2
UndoRedoHistory
Layer: 0
Undoes
EndUndoes
Redoes
EndRedoes
EndUndoRedoHistory
UndoRedoHistory
Layer: 1
Undoes
EndUndoes
Redoes
EndRedoes
EndUndoRedoHistory
Fore
SplineSet
221 -142 m 1
 152 -117 l 1
 561 822 l 1
 632 797 l 1
 221 -142 l 1
EndSplineSet
Refer: 52 79 N 1 0 0 1 0 0 2
EndChar

StartChar: P
Encoding: 80 80 60
Width: 625
VWidth: 0
GlyphClass: 2
Flags: W
HStem: 0 21G<94 216> 273 99<216 420.963> 613 98<216 415.837>
VStem: 94 122<0 273 372 613> 467 125<415.667 569.354>
AnchorPoint: "bottom" 330 0 basechar 0
AnchorPoint: "top" 342 750 basechar 0
LayerCount: 2
UndoRedoHistory
Layer: 0
Undoes
EndUndoes
Redoes
EndRedoes
EndUndoRedoHistory
UndoRedoHistory
Layer: 1
Undoes
EndUndoes
Redoes
EndRedoes
EndUndoRedoHistory
Fore
SplineSet
94 0 m 1
 94 711 l 1
 299 711 l 2
 501 711 592 650 592 497 c 0
 592 337 503 273 310 273 c 2
 216 273 l 1
 216 0 l 1
 94 0 l 1
216 372 m 1
 318 372 l 2
 420 372 467 405 467 496 c 0
 467 582 417 613 310 613 c 2
 216 613 l 1
 216 372 l 1
EndSplineSet
EndChar

StartChar: Q
Encoding: 81 81 61
Width: 777
VWidth: 0
GlyphClass: 2
Flags: W
HStem: -12 102<300.552 474.262> 621 102<300.552 474.262>
VStem: 57 130<229.072 484.04> 591 130<229.072 479.68>
LayerCount: 2
UndoRedoHistory
Layer: 0
Undoes
EndUndoes
Redoes
EndRedoes
EndUndoRedoHistory
UndoRedoHistory
Layer: 1
Undoes
EndUndoes
Redoes
EndRedoes
EndUndoRedoHistory
Fore
SplineSet
580 -125 m 1
 404 187 l 1
 491 233 l 1
 662 -82 l 1
 580 -125 l 1
EndSplineSet
Refer: 52 79 N 1 0 0 1 0 0 2
EndChar

StartChar: R
Encoding: 82 82 62
Width: 656
VWidth: 0
GlyphClass: 2
Flags: W
HStem: 0 21G<94 216 484.184 623> 315 90<216 394.705> 613 98<216 436.234>
VStem: 94 122<0 315 405 613> 463 123<444.367 586.468>
AnchorPoint: "bottom" 330 0 basechar 0
AnchorPoint: "top" 342 750 basechar 0
LayerCount: 2
UndoRedoHistory
Layer: 0
Undoes
EndUndoes
Redoes
EndRedoes
EndUndoRedoHistory
UndoRedoHistory
Layer: 1
Undoes
EndUndoes
Redoes
EndRedoes
EndUndoRedoHistory
Fore
SplineSet
94 0 m 1
 94 711 l 1
 317 711 l 2
 500 711 586 656 586 526 c 0
 586 433 551 354 443 325 c 1
 470 354 l 1
 623 0 l 1
 492 0 l 1
 356 348 l 1
 395 315 l 1
 216 315 l 1
 216 0 l 1
 94 0 l 1
216 405 m 1
 321 405 l 2
 420 405 463 437 463 519 c 0
 463 597 422 613 326 613 c 2
 216 613 l 1
 216 405 l 1
EndSplineSet
EndChar

StartChar: S
Encoding: 83 83 66
Width: 614
VWidth: 0
GlyphClass: 2
Flags: W
HStem: -11 102<207.233 402.028> 622 102<229.861 429.285>
VStem: 77 126<481.484 595.93> 441 115<127.545 249.442>
AnchorPoint: "bottom" 287 -0 basechar 0
AnchorPoint: "top" 295 750 basechar 0
LayerCount: 2
UndoRedoHistory
Layer: 0
Undoes
EndUndoes
Redoes
EndRedoes
EndUndoRedoHistory
UndoRedoHistory
Layer: 1
Undoes
EndUndoes
Redoes
EndRedoes
EndUndoRedoHistory
Fore
SplineSet
329 -11 m 0
 247 -11 149 17 81 60 c 1
 109 157 l 1
 195 109 266 91 325 91 c 0
 404 91 441 137 441 189 c 0
 441 238 429 274 271 325 c 1
 114 380 77 440 77 524 c 0
 77 630 143 724 316 724 c 0
 387 724 467 704 531 664 c 1
 497 569 l 1
 435 602 377 622 324 622 c 0
 230 622 203 588 203 541 c 0
 203 492 215 467 336 424 c 1
 505 366 559 315 556 192 c 0
 554 81 483 -11 329 -11 c 0
EndSplineSet
EndChar

StartChar: T
Encoding: 84 84 70
Width: 580
VWidth: 0
GlyphClass: 2
Flags: W
HStem: 0 21G<230 351> 613 98<30 230 351 551>
VStem: 230 121<0 613>
AnchorPoint: "bottom" 338 0 basechar 0
AnchorPoint: "top" 281 750 basechar 0
LayerCount: 2
UndoRedoHistory
Layer: 0
Undoes
EndUndoes
Redoes
EndRedoes
EndUndoRedoHistory
UndoRedoHistory
Layer: 1
Undoes
EndUndoes
Redoes
EndRedoes
EndUndoRedoHistory
Fore
SplineSet
230 0 m 1
 230 613 l 1
 30 613 l 1
 30 711 l 1
 551 711 l 1
 551 613 l 1
 351 613 l 1
 351 0 l 1
 230 0 l 1
EndSplineSet
EndChar

StartChar: Thorn
Encoding: 222 222 71
Width: 667
VWidth: 0
GlyphClass: 2
Flags: W
HStem: 0 21G<94 216> 223 94<216 456.664> 527 93<216 456.821> 691 20G<94 216>
VStem: 94 122<0 223 317 527 620 711> 497 115<351.037 489.804>
LayerCount: 2
UndoRedoHistory
Layer: 0
Undoes
EndUndoes
Redoes
EndRedoes
EndUndoRedoHistory
UndoRedoHistory
Layer: 1
Undoes
EndUndoes
Redoes
EndRedoes
EndUndoRedoHistory
Fore
SplineSet
94 0 m 1
 94 711 l 1
 216 711 l 1
 216 620 l 1
 309 620 l 2
 484 620 612 590 612 417 c 0
 612 257 495 223 331 223 c 2
 216 223 l 1
 216 0 l 1
 94 0 l 1
216 317 m 1
 330 317 l 2
 438 317 497 331 497 416 c 0
 497 523 429 527 311 527 c 2
 216 527 l 1
 216 317 l 1
EndSplineSet
EndChar

StartChar: U
Encoding: 85 85 72
Width: 726
VWidth: 0
GlyphClass: 2
Flags: W
HStem: -12 102<279.23 450.831> 691 20G<78 200 527 649>
VStem: 78 122<172.907 711> 527 122<169.885 711>
AnchorPoint: "ogonek" 415 0 basechar 0
AnchorPoint: "bottom" 403 0 basechar 0
AnchorPoint: "top" 320 750 basechar 0
LayerCount: 2
UndoRedoHistory
Layer: 0
Undoes
EndUndoes
Redoes
EndRedoes
EndUndoRedoHistory
UndoRedoHistory
Layer: 1
Undoes
EndUndoes
Redoes
EndRedoes
EndUndoRedoHistory
Fore
SplineSet
368 -12 m 0
 199 -12 78 101 78 267 c 2
 78 711 l 1
 200 711 l 1
 200 262 l 2
 200 158 266 90 367 90 c 0
 462 90 527 155 527 258 c 2
 527 711 l 1
 649 711 l 1
 649 272 l 2
 649 104 534 -12 368 -12 c 0
EndSplineSet
EndChar

StartChar: V
Encoding: 86 86 77
Width: 642
VWidth: 0
GlyphClass: 2
Flags: W
HStem: 0 21G<253.743 403.807> 691 20G<3 142.799 496.059 639>
LayerCount: 2
UndoRedoHistory
Layer: 0
Undoes
EndUndoes
Redoes
EndRedoes
EndUndoRedoHistory
UndoRedoHistory
Layer: 1
Undoes
EndUndoes
Redoes
EndRedoes
EndUndoRedoHistory
Fore
SplineSet
261 0 m 1
 3 711 l 1
 136 711 l 1
 273 308 l 1
 330 158 l 1
 382 307 l 1
 502 711 l 1
 639 711 l 1
 397 0 l 1
 261 0 l 1
EndSplineSet
EndChar

StartChar: W
Encoding: 87 87 78
Width: 1051
VWidth: 0
GlyphClass: 2
Flags: W
HStem: 0 21G<238.783 359.745 692.255 813.188> 691 20G<24 154.937 481.993 574.973 899.258 1027>
AnchorPoint: "bottom" 497 0 basechar 0
AnchorPoint: "top" 500 750 basechar 0
LayerCount: 2
UndoRedoHistory
Layer: 0
Undoes
EndUndoes
Redoes
EndRedoes
EndUndoRedoHistory
UndoRedoHistory
Layer: 1
Undoes
EndUndoes
Redoes
EndRedoes
EndUndoRedoHistory
Fore
SplineSet
245 0 m 1
 24 711 l 1
 149 711 l 1
 271 300 l 1
 303 188 l 1
 345 300 l 1
 489 711 l 1
 568 711 l 1
 712 298 l 1
 751 188 l 1
 787 300 l 1
 905 711 l 1
 1027 711 l 1
 807 0 l 1
 699 0 l 1
 526 513 l 1
 353 0 l 1
 245 0 l 1
EndSplineSet
EndChar

StartChar: X
Encoding: 88 88 79
Width: 658
VWidth: 0
GlyphClass: 2
Flags: W
HStem: 0 21G<6 153.745 498.691 645> 691 20G<30 179.06 506.642 653>
LayerCount: 2
UndoRedoHistory
Layer: 0
Undoes
EndUndoes
Redoes
EndRedoes
EndUndoRedoHistory
UndoRedoHistory
Layer: 1
Undoes
EndUndoes
Redoes
EndRedoes
EndUndoRedoHistory
Fore
SplineSet
512 0 m 1
 329 275 l 1
 140 0 l 1
 6 0 l 1
 269 367 l 1
 30 711 l 1
 166 711 l 1
 341 443 l 1
 520 711 l 1
 653 711 l 1
 401 352 l 1
 645 0 l 1
 512 0 l 1
EndSplineSet
EndChar

StartChar: Y
Encoding: 89 89 80
Width: 595
VWidth: 0
GlyphClass: 2
Flags: W
HStem: 0 21G<240 362> 691 20G<-8 135.21 466.662 604>
VStem: 240 122<0 287>
AnchorPoint: "bottom" 305 0 basechar 0
AnchorPoint: "top" 303 750 basechar 0
LayerCount: 2
UndoRedoHistory
Layer: 0
Undoes
EndUndoes
Redoes
EndRedoes
EndUndoRedoHistory
UndoRedoHistory
Layer: 1
Undoes
EndUndoes
Redoes
EndRedoes
EndUndoRedoHistory
Fore
SplineSet
240 0 m 1
 240 287 l 1
 -8 711 l 1
 124 711 l 1
 300 397 l 1
 478 711 l 1
 604 711 l 1
 362 288 l 1
 362 0 l 1
 240 0 l 1
EndSplineSet
EndChar

StartChar: Z
Encoding: 90 90 83
Width: 602
VWidth: 0
GlyphClass: 2
Flags: W
HStem: 0 98<198 554> 613 98<69 415>
AnchorPoint: "bottom" 330 0 basechar 0
AnchorPoint: "top" 342 750 basechar 0
LayerCount: 2
UndoRedoHistory
Layer: 0
Undoes
EndUndoes
Redoes
EndRedoes
EndUndoRedoHistory
UndoRedoHistory
Layer: 1
Undoes
EndUndoes
Redoes
EndRedoes
EndUndoRedoHistory
Fore
SplineSet
54 0 m 1
 54 97 l 1
 415 613 l 1
 69 613 l 1
 69 711 l 1
 558 711 l 1
 558 623 l 1
 198 98 l 1
 554 98 l 1
 554 0 l 1
 54 0 l 1
EndSplineSet
EndChar

StartChar: a
Encoding: 97 97 87
Width: 595
VWidth: 0
GlyphClass: 2
Flags: W
HStem: -11 91<214.289 329.12 514.581 557> 420 92<258.896 375.888>
VStem: 56 119<121.535 323.238> 377 118<130.041 419.07>
AnchorPoint: "ogonek" 485 0 basechar 0
AnchorPoint: "bottom" 301 0 basechar 0
AnchorPoint: "top" 311 562 basechar 0
LayerCount: 2
UndoRedoHistory
Layer: 0
Undoes
EndUndoes
Redoes
EndRedoes
EndUndoRedoHistory
UndoRedoHistory
Layer: 1
Undoes
EndUndoes
Redoes
EndRedoes
EndUndoRedoHistory
Fore
SplineSet
258 -11 m 0
 142 -11 56 83 56 210 c 0
 56 387 169 507 331 512 c 0
 407 514 474 486 495 477 c 1
 495 177 l 2
 495 123 498 86 573 86 c 1
 557 -8 l 1
 485 -8 423 -3 397 74 c 1
 372 23 318 -11 258 -11 c 0
266 80 m 0
 335 80 377 139 377 209 c 2
 377 415 l 1
 377 415 350 423 313 420 c 0
 234 414 175 330 175 205 c 0
 175 131 214 80 266 80 c 0
EndSplineSet
EndChar

StartChar: acute
Encoding: 180 180 91
Width: 526
VWidth: 0
GlyphClass: 2
Flags: W
HStem: 539 184
VStem: 146 286
LayerCount: 2
UndoRedoHistory
Layer: 0
Undoes
EndUndoes
Redoes
EndRedoes
EndUndoRedoHistory
UndoRedoHistory
Layer: 1
Undoes
EndUndoes
Redoes
EndRedoes
EndUndoRedoHistory
Fore
SplineSet
146 539 m 1
 276 723 l 1
 432 723 l 1
 255 539 l 1
 146 539 l 1
EndSplineSet
EndChar

StartChar: ae
Encoding: 230 230 93
Width: 853
VWidth: 0
GlyphClass: 2
Flags: W
HStem: -11 91<565.513 738.843> -11 80<177.74 309.447> 204 71<201.129 376 496 598.969> 421 92<171.057 336.295 553.925 671.628>
VStem: 63 102<83.5238 174.809> 376 116<279 348.859> 680 114<323.177 411.842>
LayerCount: 2
UndoRedoHistory
Layer: 0
Undoes
EndUndoes
Redoes
EndRedoes
EndUndoRedoHistory
UndoRedoHistory
Layer: 1
Undoes
EndUndoes
Redoes
EndRedoes
EndUndoRedoHistory
Fore
SplineSet
822 49 m 1xbe
 768 2 694 -11 632 -11 c 0xbe
 550 -11 478 20 432 78 c 1
 379 12 304 -11 229 -11 c 0x7e
 132 -11 63 36 63 128 c 0
 63 268 232 275 376 275 c 1
 376 306 l 2
 376 390 323 421 263 421 c 0
 214 421 162 401 128 373 c 1
 84 451 l 1
 138 490 208 513 274 513 c 0
 347 513 414 484 444 418 c 1
 488 480 552 512 625 512 c 0
 732 512 794 452 794 373 c 0
 794 371 794 368 794 366 c 0
 790 276 704 227 496 209 c 1
 505 121 578 80 647 80 c 0
 690 80 737 95 779 126 c 1
 822 49 l 1xbe
377 204 m 1
 231 201 165 193 165 127 c 0
 165 88 196 69 235 69 c 0x7e
 297 69 377 116 377 204 c 1
680 370 m 0
 680 402 657 423 619 423 c 0
 544 423 496 341 492 279 c 1
 635 296 680 314 680 370 c 0
EndSplineSet
EndChar

StartChar: ampersand
Encoding: 38 38 96
Width: 776
VWidth: 0
GlyphClass: 2
Flags: W
HStem: -18 73<696.654 722.082> -10 97<236.535 431.18> 642 82<274.367 391.083>
VStem: 71 114<131.253 271.094> 158 98<500.587 622.496> 411 97<515.007 622.503> 607 94<311.485 425>
LayerCount: 2
UndoRedoHistory
Layer: 0
Undoes
EndUndoes
Redoes
EndRedoes
EndUndoRedoHistory
UndoRedoHistory
Layer: 1
Undoes
EndUndoes
Redoes
EndRedoes
EndUndoRedoHistory
Fore
SplineSet
328 -10 m 0x6e
 182 -10 71 62 71 194 c 0x76
 71 319 152 362 233 409 c 1
 192 453 158 493 158 567 c 0
 158 664 238 724 328 724 c 0
 426 724 508 672 508 582 c 0
 508 483 440 424 375 387 c 1
 538 213 l 1
 583 275 607 365 607 449 c 1
 701 425 l 1
 697 308 658 210 604 141 c 1
 640 104 675 75 770 55 c 1
 717 -18 l 1xae
 642 -7 583 36 542 78 c 1
 488 21 433 -10 328 -10 c 0x6e
336 87 m 0
 399 87 434 102 474 143 c 1
 292 334 l 1
 235 302 185 279 185 199 c 0
 185 110 261 87 336 87 c 0
316 454 m 1
 359 479 411 521 411 573 c 0
 411 619 375 642 333 642 c 0
 291 642 256 619 256 573 c 0x2e
 256 519 285 486 316 454 c 1
EndSplineSet
EndChar

StartChar: approxequal
Encoding: 8776 8776 98
Width: 1121
VWidth: 0
GlyphClass: 2
Flags: W
HStem: 225 67<473.243 581.089> 319 69<240.628 360.067> 438 68<465.931 580.677> 533 68<239.553 359.179>
VStem: 137 65<239.769 278.343 452.75 491.677> 621 63<338.237 373.778 554.854 586.859>
LayerCount: 2
UndoRedoHistory
Layer: 0
Undoes
EndUndoes
Redoes
EndRedoes
EndUndoRedoHistory
UndoRedoHistory
Layer: 1
Undoes
EndUndoes
Redoes
EndRedoes
EndUndoRedoHistory
Fore
SplineSet
202 225 m 1
 137 241 l 1
 157 324 209 388 297 388 c 0
 347 388 392 361 427 340 c 1
 447 328 465 318 483 308 c 1
 501 299 516 292 531 292 c 0
 583 292 605 340 621 388 c 1
 684 372 l 1
 665 289 618 225 528 225 c 0
 487 225 457 240 429 256 c 0
 404 271 367 295 341 308 c 0
 325 315 311 319 296 319 c 0
 240 319 215 275 202 225 c 1
201 438 m 1
 135 454 l 1
 154 538 208 601 296 601 c 0
 372 601 429 543 485 518 c 0
 502 511 516 506 530 506 c 0
 582 506 604 553 620 602 c 1
 683 585 l 1
 665 502 616 438 527 438 c 0
 485 438 457 453 428 470 c 0
 402 485 366 509 339 522 c 0
 324 529 309 533 294 533 c 0
 239 533 215 488 201 438 c 1
EndSplineSet
EndChar

StartChar: asciicircum
Encoding: 94 94 100
Width: 590
VWidth: 0
GlyphClass: 2
Flags: W
HStem: 687 20G<263.604 329.49>
LayerCount: 2
UndoRedoHistory
Layer: 0
Undoes
EndUndoes
Redoes
EndRedoes
EndUndoRedoHistory
UndoRedoHistory
Layer: 1
Undoes
EndUndoes
Redoes
EndRedoes
EndUndoRedoHistory
Fore
SplineSet
51 278 m 1
 274 707 l 1
 319 707 l 1
 544 278 l 1
 445 278 l 1
 295 574 l 1
 152 278 l 1
 51 278 l 1
EndSplineSet
EndChar

StartChar: asciitilde
Encoding: 126 126 101
Width: 749
VWidth: 0
GlyphClass: 2
Flags: W
HStem: 326 217
VStem: 97 71<349.437 378.338> 595 72<494.328 523.139>
LayerCount: 2
UndoRedoHistory
Layer: 0
Undoes
EndUndoes
Redoes
EndRedoes
EndUndoRedoHistory
UndoRedoHistory
Layer: 1
Undoes
EndUndoes
Redoes
EndRedoes
EndUndoRedoHistory
Fore
SplineSet
168 326 m 1
 97 352 l 1
 122 505 240 560 346 509 c 2
 463 453 l 2
 542 415 571 477 595 543 c 1
 667 521 l 1
 639 375 560 287 424 354 c 2
 312 409 l 2
 231 449 181 388 168 326 c 1
EndSplineSet
EndChar

StartChar: asterisk
Encoding: 42 42 102
Width: 532
VWidth: 0
GlyphClass: 2
Flags: W
HStem: 691 20G<227 301>
VStem: 227 74<629.8 711>
LayerCount: 2
UndoRedoHistory
Layer: 0
Undoes
EndUndoes
Redoes
EndRedoes
EndUndoRedoHistory
UndoRedoHistory
Layer: 1
Undoes
EndUndoes
Redoes
EndRedoes
EndUndoRedoHistory
Fore
SplineSet
350 302 m 1
 267 454 l 1
 188 306 l 1
 116 349 l 1
 223 486 l 1
 66 539 l 1
 97 610 l 1
 242 537 l 1
 227 711 l 1
 301 711 l 1
 294 540 l 1
 433 611 l 1
 470 540 l 1
 310 488 l 1
 422 344 l 1
 350 302 l 1
EndSplineSet
EndChar

StartChar: at
Encoding: 64 64 103
Width: 884
VWidth: 0
GlyphClass: 2
Flags: W
HStem: -31 74<348.105 606.504> 146 81<358.17 455.441> 146 64<596.3 683.251> 668 71<346.294 589.801>
VStem: 54 93<234.403 472.975> 254 82<248.794 414.966> 524 66<312.433 373.392> 751 79<292.176 511.973>
LayerCount: 2
UndoRedoHistory
Layer: 0
Undoes
EndUndoes
Redoes
EndRedoes
EndUndoRedoHistory
UndoRedoHistory
Layer: 1
Undoes
EndUndoes
Redoes
EndRedoes
EndUndoRedoHistory
Fore
SplineSet
465 -31 m 0xbf
 252 -31 54 104 54 352 c 0
 54 607 261 739 472 739 c 0
 654 739 830 630 830 406 c 0
 830 249 743 146 623 146 c 0xbf
 570 146 521 177 525 247 c 1
 491 178 433 146 387 146 c 0xdf
 310 146 254 211 254 326 c 0
 254 462 353 568 449 575 c 0
 518 580 548 548 562 508 c 1
 581 560 l 1
 649 560 l 1
 613 387 590 266 590 258 c 0
 590 229 608 210 630 210 c 0
 679 210 751 266 751 409 c 0
 751 573 622 668 471 668 c 0
 297 668 147 556 147 354 c 0
 147 151 292 43 479 43 c 0
 546 43 624 63 684 98 c 1
 724 35 l 1
 647 -11 550 -31 465 -31 c 0xbf
403 227 m 0xdf
 457 227 524 294 524 424 c 0
 524 476 499 500 467 500 c 0
 411 500 336 431 336 318 c 0
 336 257 367 227 403 227 c 0xdf
EndSplineSet
EndChar

StartChar: b
Encoding: 98 98 105
Width: 601
VWidth: 0
GlyphClass: 2
Flags: W
HStem: -11 91<204.725 343.171> 421 91<265.617 380.934>
VStem: 86 118<85.1447 349.937 442 723> 425 121<172.149 367.233>
AnchorPoint: "bottom" 403 0 basechar 0
AnchorPoint: "top" 386 750 basechar 0
LayerCount: 2
UndoRedoHistory
Layer: 0
Undoes
EndUndoes
Redoes
EndRedoes
EndUndoRedoHistory
UndoRedoHistory
Layer: 1
Undoes
EndUndoes
Redoes
EndRedoes
EndUndoRedoHistory
Fore
SplineSet
283 -11 m 0
 219 -11 154 2 86 27 c 1
 86 723 l 1
 204 723 l 1
 204 442 l 1
 241 491 288 512 349 512 c 0
 448 512 546 430 546 276 c 0
 546 86 408 -11 283 -11 c 0
278 80 m 0
 337 80 425 137 425 274 c 0
 425 356 386 421 329 421 c 0
 264 421 204 362 204 250 c 2
 204 91 l 1
 227 83 252 80 278 80 c 0
EndSplineSet
EndChar

StartChar: backslash
Encoding: 92 92 106
Width: 600
VWidth: 0
GlyphClass: 2
Flags: W
HStem: 0 21G<379.039 501> 691 20G<104 227.904>
LayerCount: 2
UndoRedoHistory
Layer: 0
Undoes
EndUndoes
Redoes
EndRedoes
EndUndoRedoHistory
UndoRedoHistory
Layer: 1
Undoes
EndUndoes
Redoes
EndRedoes
EndUndoRedoHistory
Fore
SplineSet
387 0 m 1
 104 711 l 1
 220 711 l 1
 501 0 l 1
 387 0 l 1
EndSplineSet
EndChar

StartChar: bar
Encoding: 124 124 107
Width: 412
VWidth: 0
GlyphClass: 2
Flags: W
VStem: 149 114<-62 767>
LayerCount: 2
UndoRedoHistory
Layer: 0
Undoes
EndUndoes
Redoes
EndRedoes
EndUndoRedoHistory
UndoRedoHistory
Layer: 1
Undoes
EndUndoes
Redoes
EndRedoes
EndUndoRedoHistory
Fore
SplineSet
149 -62 m 1
 149 767 l 1
 263 767 l 1
 263 -62 l 1
 149 -62 l 1
EndSplineSet
EndChar

StartChar: braceleft
Encoding: 123 123 108
Width: 455
VWidth: 0
GlyphClass: 2
Flags: W
HStem: -96 82<310.277 384> 286 89<78 135.046> 676 82<312.901 384>
VStem: 168 123<8.15451 253.189 408.087 655.894>
LayerCount: 2
UndoRedoHistory
Layer: 0
Undoes
EndUndoes
Redoes
EndRedoes
EndUndoRedoHistory
UndoRedoHistory
Layer: 1
Undoes
EndUndoes
Redoes
EndRedoes
EndUndoRedoHistory
Fore
SplineSet
384 -96 m 1
 278 -96 168 -52 168 60 c 2
 168 146 l 2
 168 231 156 278 78 286 c 1
 78 375 l 1
 147 381 168 424 168 500 c 2
 168 581 l 2
 168 703 260 758 384 758 c 1
 384 676 l 1
 318 676 291 655 291 589 c 2
 291 487 l 2
 291 411 248 356 201 331 c 1
 254 306 291 251 291 176 c 2
 291 99 l 2
 291 20 301 -14 384 -14 c 1
 384 -96 l 1
EndSplineSet
EndChar

StartChar: braceright
Encoding: 125 125 109
Width: 475
VWidth: 0
GlyphClass: 2
Flags: W
HStem: -159 72<93 161.301> 262 69<314.352 368> 686 72<93 155.747>
VStem: 183 95<-63.5326 229.727 371.015 660.125>
LayerCount: 2
UndoRedoHistory
Layer: 0
Undoes
EndUndoes
Redoes
EndRedoes
EndUndoRedoHistory
UndoRedoHistory
Layer: 1
Undoes
EndUndoes
Redoes
EndRedoes
EndUndoRedoHistory
Fore
SplineSet
93 -159 m 1
 93 -87 l 1
 171 -87 185 -53 185 50 c 2
 185 142 l 2
 185 217 211 271 264 296 c 1
 215 321 183 377 183 453 c 2
 183 589 l 2
 183 655 157 684 93 686 c 1
 93 758 l 1
 216 758 278 703 278 581 c 2
 278 466 l 2
 278 390 300 337 369 331 c 1
 368 262 l 1
 310 256 279 223 279 164 c 2
 278 -4 l 2
 278 -116 199 -155 93 -159 c 1
EndSplineSet
EndChar

StartChar: bracketleft
Encoding: 91 91 110
Width: 448
VWidth: 0
GlyphClass: 2
Flags: W
HStem: -100 63<267 360> 659 64<267 360>
VStem: 140 220<-100 -37 659 723> 140 127<-37 659>
LayerCount: 2
UndoRedoHistory
Layer: 0
Undoes
EndUndoes
Redoes
EndRedoes
EndUndoRedoHistory
UndoRedoHistory
Layer: 1
Undoes
EndUndoes
Redoes
EndRedoes
EndUndoRedoHistory
Fore
SplineSet
140 -100 m 1xe0
 140 723 l 1
 360 723 l 1
 360 659 l 1xe0
 267 659 l 1
 267 -37 l 1xd0
 360 -37 l 1
 360 -100 l 1
 140 -100 l 1xe0
EndSplineSet
EndChar

StartChar: bracketright
Encoding: 93 93 111
Width: 464
VWidth: 0
GlyphClass: 2
Flags: W
HStem: -108 63<103 197> 659 64<103 197>
VStem: 103 220<-108 -45 659 723> 197 126<-45 659>
LayerCount: 2
UndoRedoHistory
Layer: 0
Undoes
EndUndoes
Redoes
EndRedoes
EndUndoRedoHistory
UndoRedoHistory
Layer: 1
Undoes
EndUndoes
Redoes
EndRedoes
EndUndoRedoHistory
Fore
SplineSet
103 -108 m 1xe0
 103 -45 l 1xe0
 197 -45 l 1
 197 659 l 1xd0
 103 659 l 1
 103 723 l 1
 323 723 l 1
 323 -108 l 1
 103 -108 l 1xe0
EndSplineSet
EndChar

StartChar: breve
Encoding: 728 728 112
Width: 540
VWidth: 0
GlyphClass: 2
Flags: W
HStem: 587 61<202.903 352.421>
VStem: 121 50<679.796 723> 390 49<684.71 723>
AnchorPoint: "top" 160 511 mark 0
LayerCount: 2
UndoRedoHistory
Layer: 0
Undoes
EndUndoes
Redoes
EndRedoes
EndUndoRedoHistory
UndoRedoHistory
Layer: 1
Undoes
EndUndoes
Redoes
EndRedoes
EndUndoRedoHistory
Fore
SplineSet
281 587 m 0
 186 587 128 631 121 723 c 1
 171 723 l 1
 179 673 221 648 277 648 c 0
 333 648 379 675 390 723 c 1
 439 723 l 1
 432 635 374 587 281 587 c 0
EndSplineSet
EndChar

StartChar: brokenbar
Encoding: 166 166 113
Width: 386
VWidth: 0
GlyphClass: 2
Flags: W
VStem: 134 117<-135 253 377 745>
LayerCount: 2
UndoRedoHistory
Layer: 0
Undoes
EndUndoes
Redoes
EndRedoes
EndUndoRedoHistory
UndoRedoHistory
Layer: 1
Undoes
EndUndoes
Redoes
EndRedoes
EndUndoRedoHistory
Fore
SplineSet
134 -135 m 1
 134 253 l 1
 251 253 l 1
 251 -135 l 1
 134 -135 l 1
134 377 m 1
 134 745 l 1
 251 745 l 1
 251 377 l 1
 134 377 l 1
EndSplineSet
EndChar

StartChar: bullet
Encoding: 8226 8226 114
Width: 838
VWidth: 0
GlyphClass: 2
Flags: W
HStem: 331 358<243.688 410.002>
VStem: 140 374<431.511 589.355>
LayerCount: 2
UndoRedoHistory
Layer: 0
Undoes
EndUndoes
Redoes
EndRedoes
EndUndoRedoHistory
UndoRedoHistory
Layer: 1
Undoes
EndUndoes
Redoes
EndRedoes
EndUndoRedoHistory
Fore
SplineSet
326 331 m 0
 245 331 183 379 155 440 c 0
 145 461 140 484 140 508 c 0
 140 593 199 650 261 675 c 1
 282 685 305 689 328 689 c 0
 409 689 470 641 498 581 c 1
 509 560 514 536 514 512 c 0
 514 456 487 412 456 384 c 1
 424 354 378 331 326 331 c 0
EndSplineSet
EndChar

StartChar: c
Encoding: 99 99 115
Width: 505
VWidth: 0
GlyphClass: 2
Flags: W
HStem: -11 91<241.329 413.005> 421 91<240.891 408.802>
VStem: 57 121<147.758 352.168>
AnchorPoint: "bottom" 292 0 basechar 0
AnchorPoint: "top" 292 562 basechar 0
LayerCount: 2
UndoRedoHistory
Layer: 0
Undoes
EndUndoes
Redoes
EndRedoes
EndUndoRedoHistory
UndoRedoHistory
Layer: 1
Undoes
EndUndoes
Redoes
EndRedoes
EndUndoRedoHistory
Fore
SplineSet
304 -11 m 0
 169 -11 57 72 57 253 c 0
 57 431 174 512 307 512 c 0
 356 512 412 500 459 469 c 1
 428 390 l 1
 389 411 348 421 316 421 c 0
 233 421 178 363 178 254 c 0
 178 121 248 80 317 80 c 0
 354 80 398 89 438 115 c 1
 474 40 l 1
 418 3 359 -11 304 -11 c 0
EndSplineSet
EndChar

StartChar: caron
Encoding: 711 711 117
Width: 593
VWidth: 0
GlyphClass: 2
Flags: W
HStem: 1006 185
LayerCount: 2
UndoRedoHistory
Layer: 0
Undoes
EndUndoes
Redoes
EndRedoes
EndUndoRedoHistory
UndoRedoHistory
Layer: 1
Undoes
EndUndoes
Redoes
EndRedoes
EndUndoRedoHistory
Fore
SplineSet
166 1006 m 1
 30 1191 l 1
 114 1191 l 1
 202 1068 l 1
 292 1191 l 1
 381 1191 l 1
 246 1006 l 1
 166 1006 l 1
EndSplineSet
EndChar

StartChar: cedilla
Encoding: 184 184 120
Width: 459
VWidth: 0
GlyphClass: 2
Flags: W
HStem: -235 47<107.884 256.141> -104 44<224 256.234>
VStem: 261 82<-179.826 -111.405>
AnchorPoint: "bottom" 137 0 mark 0
LayerCount: 2
UndoRedoHistory
Layer: 0
Undoes
EndUndoes
Redoes
EndRedoes
EndUndoRedoHistory
UndoRedoHistory
Layer: 1
Undoes
EndUndoes
Redoes
EndRedoes
EndUndoRedoHistory
Fore
SplineSet
205 -235 m 0
 170 -235 135 -229 104 -223 c 1
 109 -174 l 1
 137 -181 165 -188 196 -188 c 0
 234 -188 261 -178 261 -146 c 0
 261 -112 234 -104 199 -104 c 0
 194 -104 184 -105 178 -106 c 1
 159 -107 l 1
 178 2 l 1
 233 2 l 1
 224 -60 l 1
 229 -60 l 1
 289 -63 343 -83 343 -145 c 0
 343 -214 275 -235 205 -235 c 0
EndSplineSet
EndChar

StartChar: cent
Encoding: 162 162 121
Width: 546
VWidth: 0
GlyphClass: 2
Flags: W
HStem: -11 91<246.329 418.005> 421 91<245.891 413.802>
VStem: 62 121<147.758 352.168> 291 64<-202 667>
LayerCount: 2
UndoRedoHistory
Layer: 0
Undoes
EndUndoes
Redoes
EndRedoes
EndUndoRedoHistory
UndoRedoHistory
Layer: 1
Undoes
EndUndoes
Redoes
EndRedoes
EndUndoRedoHistory
Fore
SplineSet
291 -202 m 1
 291 667 l 1
 355 667 l 1
 355 -202 l 1
 291 -202 l 1
EndSplineSet
Refer: 115 99 N 1 0 0 1 5 0 2
EndChar

StartChar: circumflex
Encoding: 710 710 122
Width: 591
VWidth: 0
GlyphClass: 2
Flags: W
HStem: 1006 186
LayerCount: 2
UndoRedoHistory
Layer: 0
Undoes
EndUndoes
Redoes
EndRedoes
EndUndoRedoHistory
UndoRedoHistory
Layer: 1
Undoes
EndUndoes
Redoes
EndRedoes
EndUndoRedoHistory
Fore
SplineSet
158 1192 m 1
 239 1192 l 1
 380 1006 l 1
 270 1006 l 1
 199 1096 l 1
 125 1006 l 1
 18 1006 l 1
 158 1192 l 1
EndSplineSet
EndChar

StartChar: colon
Encoding: 58 58 123
Width: 298
VWidth: 0
GlyphClass: 2
Flags: W
HStem: 0 121<87 211> 380 121<87 211>
VStem: 87 124<0 121 380 501>
LayerCount: 2
UndoRedoHistory
Layer: 0
Undoes
EndUndoes
Redoes
EndRedoes
EndUndoRedoHistory
UndoRedoHistory
Layer: 1
Undoes
EndUndoes
Redoes
EndRedoes
EndUndoRedoHistory
Fore
SplineSet
87 0 m 1
 87 121 l 1
 211 121 l 1
 211 0 l 1
 87 0 l 1
87 380 m 1
 87 501 l 1
 211 501 l 1
 211 380 l 1
 87 380 l 1
EndSplineSet
EndChar

StartChar: comma
Encoding: 44 44 124
Width: 259
VWidth: 0
GlyphClass: 2
Flags: W
HStem: -145 270<90 121>
VStem: 46 168
AnchorPoint: "bottom" 131 169 mark 0
LayerCount: 2
UndoRedoHistory
Layer: 0
Undoes
EndUndoes
Redoes
EndRedoes
EndUndoRedoHistory
UndoRedoHistory
Layer: 1
Undoes
EndUndoes
Redoes
EndRedoes
EndUndoRedoHistory
Fore
SplineSet
46 -145 m 1
 90 125 l 1
 214 125 l 1
 121 -145 l 1
 46 -145 l 1
EndSplineSet
EndChar

StartChar: commaaccentcomb
Encoding: 806 806 125
Width: 469
VWidth: 0
GlyphClass: 2
Flags: W
HStem: -538 266<133 147>
VStem: 72 168
LayerCount: 2
UndoRedoHistory
Layer: 0
Undoes
EndUndoes
Redoes
EndRedoes
EndUndoRedoHistory
UndoRedoHistory
Layer: 1
Undoes
EndUndoes
Redoes
EndRedoes
EndUndoRedoHistory
Fore
SplineSet
72 -538 m 1
 133 -272 l 1
 240 -272 l 1
 147 -538 l 1
 72 -538 l 1
EndSplineSet
EndChar

StartChar: copyright
Encoding: 169 169 126
Width: 888
VWidth: 0
GlyphClass: 2
Flags: W
HStem: -12 51<336.23 551.554> 122 64<380.917 558.68> 481 21G<568 590.085> 527 63<375.579 549.957> 669 54<336.23 551.554>
VStem: 77 59<238.64 466.331> 229 74<261.389 451.53> 751 61<238.64 466.331>
LayerCount: 2
UndoRedoHistory
Layer: 0
Undoes
EndUndoes
Redoes
EndRedoes
EndUndoRedoHistory
UndoRedoHistory
Layer: 1
Undoes
EndUndoes
Redoes
EndRedoes
EndUndoRedoHistory
Fore
SplineSet
457 122 m 0
 313 122 229 231 229 356 c 0
 229 509 330 590 461 590 c 0
 515 590 562 574 600 540 c 1
 585 481 l 1
 551 512 508 527 458 527 c 0
 355 527 303 449 303 358 c 0
 303 246 368 186 471 186 c 0
 518 186 555 201 583 225 c 1
 601 166 l 1
 560 137 513 122 457 122 c 0
444 39 m 0
 615 39 751 183 751 354 c 0
 751 526 615 669 444 669 c 0
 272 669 136 526 136 354 c 0
 136 183 272 39 444 39 c 0
444 723 m 0
 646 723 812 557 812 355 c 0
 812 153 646 -12 444 -12 c 0
 242 -12 77 153 77 355 c 0
 77 557 242 723 444 723 c 0
EndSplineSet
EndChar

StartChar: currency
Encoding: 164 164 127
Width: 670
VWidth: 0
GlyphClass: 2
Flags: W
HStem: 223 44<254.851 413.409> 599 48<255.521 410.976> 678 20G<533.277 572.909>
VStem: 126 51<346.975 519.373> 488 53<345.017 518.068>
LayerCount: 2
UndoRedoHistory
Layer: 0
Undoes
EndUndoes
Redoes
EndRedoes
EndUndoRedoHistory
UndoRedoHistory
Layer: 1
Undoes
EndUndoes
Redoes
EndRedoes
EndUndoRedoHistory
Fore
SplineSet
562 176 m 1
 468 269 l 1
 432 234 385 223 333 223 c 0
 285 223 241 232 206 264 c 1
 116 167 l 1
 96 189 l 1
 186 284 l 1
 149 324 126 377 126 435 c 0
 126 488 147 537 180 576 c 1
 87 667 l 1
 109 688 l 1
 200 599 l 1
 238 636 287 648 339 647 c 0
 387 646 430 636 464 604 c 1
 552 698 l 1
 575 676 l 1
 484 582 l 1
 520 541 542 487 541 429 c 0
 540 375 521 328 488 290 c 1
 583 197 l 1
 562 176 l 1
333 267 m 0
 421 267 486 332 488 429 c 0
 490 526 424 597 337 599 c 0
 249 601 177 531 177 434 c 0
 177 336 246 267 333 267 c 0
EndSplineSet
EndChar

StartChar: d
Encoding: 100 100 128
Width: 614
VWidth: 0
GlyphClass: 2
Flags: W
HStem: -11 91<222.575 338.481 536.584 576> 421 91<254.496 394.85>
VStem: 55 121<133.443 333.075> 396 118<142.773 415.442 499 723>
AnchorPoint: "bottom" 403 0 basechar 0
AnchorPoint: "top" 386 750 basechar 0
LayerCount: 2
UndoRedoHistory
Layer: 0
Undoes
EndUndoes
Redoes
EndRedoes
EndUndoRedoHistory
UndoRedoHistory
Layer: 1
Undoes
EndUndoes
Redoes
EndRedoes
EndUndoRedoHistory
Fore
SplineSet
176 223 m 0
 176 134 225 80 277 80 c 0
 337 80 396 131 396 243 c 2
 396 410 l 1
 375 416 351 421 327 421 c 0
 252 421 176 360 176 223 c 0
417 73 m 1
 384 20 321 -11 259 -11 c 0
 164 -11 55 61 55 220 c 0
 55 411 187 512 312 512 c 0
 340 512 368 507 396 499 c 1
 396 723 l 1
 514 723 l 1
 514 178 l 2
 514 106 531 86 592 86 c 1
 576 -8 l 1
 473 -8 441 11 417 73 c 1
EndSplineSet
EndChar

StartChar: dagger
Encoding: 8224 8224 129
Width: 863
VWidth: 0
GlyphClass: 2
Flags: W
HStem: 568 76<97 277 354 543>
VStem: 277 77<644 864> 277 70<97 568>
LayerCount: 2
UndoRedoHistory
Layer: 0
Undoes
EndUndoes
Redoes
EndRedoes
EndUndoRedoHistory
UndoRedoHistory
Layer: 1
Undoes
EndUndoes
Redoes
EndRedoes
EndUndoRedoHistory
Fore
SplineSet
277 97 m 1xa0
 277 568 l 1xa0
 97 568 l 1
 97 644 l 1
 277 644 l 1
 277 864 l 1
 354 864 l 1
 354 644 l 1xc0
 543 644 l 1
 543 568 l 1
 347 568 l 1
 347 97 l 1
 277 97 l 1xa0
EndSplineSet
EndChar

StartChar: daggerdbl
Encoding: 8225 8225 130
Width: 867
VWidth: 0
GlyphClass: 2
Flags: W
HStem: 282 72<89 279 350 539> 596 76<93 279 353 543>
VStem: 279 71<226.5 282 354 596 672 729.6>
LayerCount: 2
UndoRedoHistory
Layer: 0
Undoes
EndUndoes
Redoes
EndRedoes
EndUndoRedoHistory
UndoRedoHistory
Layer: 1
Undoes
EndUndoes
Redoes
EndRedoes
EndUndoRedoHistory
Fore
SplineSet
269 97 m 1
 279 282 l 1
 89 282 l 1
 89 354 l 1
 279 354 l 1
 279 596 l 1
 93 596 l 1
 93 672 l 1
 283 672 l 1
 269 864 l 1
 364 864 l 1
 353 672 l 1
 543 672 l 1
 543 596 l 1
 350 596 l 1
 350 354 l 1
 539 354 l 1
 539 282 l 1
 350 282 l 1
 361 97 l 1
 269 97 l 1
EndSplineSet
EndChar

StartChar: dblgravecmb
Encoding: 783 783 131
Width: 822
VWidth: 0
GlyphClass: 2
Flags: W
HStem: 1009 180
AnchorPoint: "top" 91 512 mark 0
LayerCount: 2
UndoRedoHistory
Layer: 0
Undoes
EndUndoes
Redoes
EndRedoes
EndUndoRedoHistory
UndoRedoHistory
Layer: 1
Undoes
EndUndoes
Redoes
EndRedoes
EndUndoRedoHistory
Fore
SplineSet
299 1009 m 1
 145 1189 l 1
 245 1189 l 1
 361 1009 l 1
 299 1009 l 1
443 1009 m 1
 296 1189 l 1
 387 1189 l 1
 511 1009 l 1
 443 1009 l 1
EndSplineSet
EndChar

StartChar: degree
Encoding: 176 176 132
Width: 717
VWidth: 0
GlyphClass: 2
Flags: W
HStem: 380 67<199.383 327.742> 651 66<200.395 328.759>
VStem: 87 72<485.594 610.325> 369 71<488.339 612.532>
LayerCount: 2
UndoRedoHistory
Layer: 0
Undoes
EndUndoes
Redoes
EndRedoes
EndUndoRedoHistory
UndoRedoHistory
Layer: 1
Undoes
EndUndoes
Redoes
EndRedoes
EndUndoRedoHistory
Fore
SplineSet
264 447 m 0
 326 447 369 496 369 549 c 0
 369 616 316 651 264 651 c 0
 203 651 159 603 159 549 c 0
 159 481 213 447 264 447 c 0
264 380 m 0
 160 380 87 462 87 550 c 0
 87 658 180 717 264 717 c 0
 368 717 440 636 440 550 c 0
 440 440 348 380 264 380 c 0
EndSplineSet
EndChar

StartChar: dieresis
Encoding: 168 168 133
Width: 632
VWidth: 0
GlyphClass: 2
Flags: W
HStem: 580 127<151 279 359 487>
VStem: 151 128<580 707> 359 128<580 707>
AnchorPoint: "top" 180 562 mark 0
LayerCount: 2
UndoRedoHistory
Layer: 0
Undoes
EndUndoes
Redoes
EndRedoes
EndUndoRedoHistory
UndoRedoHistory
Layer: 1
Undoes
EndUndoes
Redoes
EndRedoes
EndUndoRedoHistory
Fore
SplineSet
151 580 m 1
 151 707 l 1
 279 707 l 1
 279 580 l 1
 151 580 l 1
359 580 m 1
 359 707 l 1
 487 707 l 1
 487 580 l 1
 359 580 l 1
EndSplineSet
EndChar

StartChar: divide
Encoding: 247 247 134
Width: 1222
VWidth: 0
GlyphClass: 2
Flags: W
HStem: 18 121<405 517> 284 80<175 741> 506 121<405 517>
VStem: 405 112<18 139 506 627>
LayerCount: 2
UndoRedoHistory
Layer: 0
Undoes
EndUndoes
Redoes
EndRedoes
EndUndoRedoHistory
UndoRedoHistory
Layer: 1
Undoes
EndUndoes
Redoes
EndRedoes
EndUndoRedoHistory
Fore
SplineSet
405 506 m 1
 405 627 l 1
 517 627 l 1
 517 506 l 1
 405 506 l 1
175 284 m 1
 175 364 l 1
 741 364 l 1
 741 284 l 1
 175 284 l 1
405 18 m 1
 405 139 l 1
 517 139 l 1
 517 18 l 1
 405 18 l 1
EndSplineSet
EndChar

StartChar: dollar
Encoding: 36 36 135
Width: 612
VWidth: 0
GlyphClass: 2
Flags: W
HStem: -11 102<212.233 407.028> 622 102<234.861 434.285>
VStem: 82 126<481.484 595.93> 297 64<-104 795> 446 115<127.545 249.442>
LayerCount: 2
UndoRedoHistory
Layer: 0
Undoes
EndUndoes
Redoes
EndRedoes
EndUndoRedoHistory
UndoRedoHistory
Layer: 1
Undoes
EndUndoes
Redoes
EndRedoes
EndUndoRedoHistory
Fore
SplineSet
297 -104 m 1
 298 795 l 1
 361 795 l 1
 361 -104 l 1
 297 -104 l 1
EndSplineSet
Refer: 66 83 N 1 0 0 1 5 0 2
EndChar

StartChar: dotaccent
Encoding: 729 729 136
Width: 455
VWidth: 0
GlyphClass: 2
Flags: W
HStem: 1072 93<163 255>
VStem: 163 92<1072 1165>
AnchorPoint: "top" 154 503 mark 0
LayerCount: 2
UndoRedoHistory
Layer: 0
Undoes
EndUndoes
Redoes
EndRedoes
EndUndoRedoHistory
UndoRedoHistory
Layer: 1
Undoes
EndUndoes
Redoes
EndRedoes
EndUndoRedoHistory
Fore
SplineSet
163 1072 m 1
 163 1165 l 1
 255 1165 l 1
 255 1072 l 1
 163 1072 l 1
EndSplineSet
EndChar

StartChar: dotlessi
Encoding: 305 305 137
Width: 356
VWidth: 0
GlyphClass: 2
Flags: W
HStem: 481 20G<96 214>
VStem: 96 118<99.2929 501>
AnchorPoint: "top" 133 500 basechar 0
LayerCount: 2
UndoRedoHistory
Layer: 0
Undoes
EndUndoes
Redoes
EndRedoes
EndUndoRedoHistory
UndoRedoHistory
Layer: 1
Undoes
EndUndoes
Redoes
EndRedoes
EndUndoRedoHistory
Fore
SplineSet
365 16 m 1
 238 -34 96 -12 96 165 c 2
 96 501 l 1
 214 501 l 1
 214 163 l 2
 214 77 266 76 350 99 c 1
 365 16 l 1
EndSplineSet
EndChar

StartChar: e
Encoding: 101 101 138
Width: 534
VWidth: 0
GlyphClass: 2
Flags: W
HStem: -11 92<239.58 414.05> 423 89<238.713 350.406>
VStem: 55 115<255 341.884>
AnchorPoint: "ogonek" 424 27 basechar 0
AnchorPoint: "bottom" 320 0 basechar 0
AnchorPoint: "top" 297 562 basechar 0
LayerCount: 2
UndoRedoHistory
Layer: 0
Undoes
EndUndoes
Redoes
EndRedoes
EndUndoRedoHistory
UndoRedoHistory
Layer: 1
Undoes
EndUndoes
Redoes
EndRedoes
EndUndoRedoHistory
Fore
SplineSet
299 423 m 0
 224 423 170 337 170 255 c 1
 317 276 371 314 365 370 c 0
 362 402 337 423 299 423 c 0
465 127 m 1
 503 55 l 1
 449 8 367 -11 305 -11 c 0
 162 -11 55 84 55 251 c 0
 55 398 163 512 301 512 c 0
 411 512 471 438 471 366 c 0
 471 276 399 203 181 181 c 1
 198 121 247 81 318 81 c 0
 360 81 409 95 465 127 c 1
EndSplineSet
EndChar

StartChar: e.alt
Encoding: 65538 -1 139
Width: 898
VWidth: 0
GlyphClass: 2
Flags: W
HStem: -17 82<275.826 449.117> 518 82<280.625 420.213>
VStem: 86 103<278.694 410.765> 453 93<366.956 486.086>
LayerCount: 2
UndoRedoHistory
Layer: 0
Undoes
EndUndoes
Redoes
EndRedoes
EndUndoRedoHistory
UndoRedoHistory
Layer: 1
Undoes
EndUndoes
Redoes
EndRedoes
EndUndoRedoHistory
Fore
SplineSet
352 -17 m 0
 215 -17 86 96 86 291 c 0
 86 457 187 600 354 600 c 0
 468 600 546 521 546 425 c 0
 546 285 386 239 197 208 c 1
 220 105 286 65 355 65 c 0
 427 65 495 102 537 153 c 1
 584 92 l 1
 516 21 440 -17 352 -17 c 0
190 275 m 1
 338 300 453 335 453 427 c 0
 453 479 416 518 354 518 c 0
 250 518 189 416 189 304 c 0
 189 295 189 285 190 275 c 1
EndSplineSet
EndChar

StartChar: eight
Encoding: 56 56 144
Width: 612
VWidth: 0
GlyphClass: 2
Flags: W
HStem: -12 94<239.307 395.441> 631 92<242.108 386.869>
VStem: 86 118<116.483 238.913> 101 112<477.627 602.314> 417 109<481.929 602.312> 429 112<114.438 242.036>
LayerCount: 2
UndoRedoHistory
Layer: 0
Undoes
EndUndoes
Redoes
EndRedoes
EndUndoRedoHistory
UndoRedoHistory
Layer: 1
Undoes
EndUndoes
Redoes
EndRedoes
EndUndoRedoHistory
Fore
SplineSet
541 172 m 0xd4
 541 76 480 -12 313 -12 c 0
 156 -12 86 66 86 176 c 0
 86 263 126 319 271 393 c 0
 396 457 417 495 417 548 c 0xe8
 417 605 370 631 315 631 c 0
 255 631 213 601 213 548 c 0
 213 469 265 443 366 392 c 0
 482 333 541 260 541 172 c 0xd4
101 541 m 0xd4
 101 661 190 723 313 723 c 0
 455 723 526 638 526 541 c 0
 526 465 459 399 347 339 c 0
 254 290 204 230 204 175 c 0xe8
 204 122 241 82 314 82 c 0
 396 82 429 123 429 174 c 0
 429 231 407 267 271 337 c 0
 226 360 101 403 101 541 c 0xd4
EndSplineSet
EndChar

StartChar: ellipsis
Encoding: 8230 8230 145
Width: 1353
VWidth: 0
GlyphClass: 2
Flags: W
HStem: -10 121<142 266 433 550 717 841>
VStem: 142 124<-10 111> 433 117<-10 111> 717 124<-10 111>
CounterMasks: 1 70
LayerCount: 2
UndoRedoHistory
Layer: 0
Undoes
EndUndoes
Redoes
EndRedoes
EndUndoRedoHistory
UndoRedoHistory
Layer: 1
Undoes
EndUndoes
Redoes
EndRedoes
EndUndoRedoHistory
Fore
SplineSet
142 -10 m 1
 142 111 l 1
 266 111 l 1
 266 -10 l 1
 142 -10 l 1
433 -10 m 1
 433 111 l 1
 550 111 l 1
 550 -10 l 1
 433 -10 l 1
717 -10 m 1
 717 111 l 1
 841 111 l 1
 841 -10 l 1
 717 -10 l 1
EndSplineSet
EndChar

StartChar: emdash
Encoding: 8212 8212 147
Width: 1773
VWidth: 0
GlyphClass: 2
Flags: W
HStem: 420 79<2 1145>
LayerCount: 2
UndoRedoHistory
Layer: 0
Undoes
EndUndoes
Redoes
EndRedoes
EndUndoRedoHistory
UndoRedoHistory
Layer: 1
Undoes
EndUndoes
Redoes
EndRedoes
EndUndoRedoHistory
Fore
SplineSet
2 420 m 1
 2 499 l 1
 1145 499 l 1
 1145 420 l 1
 2 420 l 1
EndSplineSet
EndChar

StartChar: endash
Encoding: 8211 8211 148
Width: 899
VWidth: 0
GlyphClass: 2
Flags: W
HStem: 420 79<0 587>
LayerCount: 2
UndoRedoHistory
Layer: 0
Undoes
EndUndoes
Redoes
EndRedoes
EndUndoRedoHistory
UndoRedoHistory
Layer: 1
Undoes
EndUndoes
Redoes
EndRedoes
EndUndoRedoHistory
Fore
SplineSet
0 420 m 1
 0 499 l 1
 587 499 l 1
 587 420 l 1
 0 420 l 1
EndSplineSet
EndChar

StartChar: equal
Encoding: 61 61 150
Width: 567
VWidth: 0
GlyphClass: 2
Flags: W
HStem: 220 83<83 485> 417 84<82 485>
LayerCount: 2
UndoRedoHistory
Layer: 0
Undoes
EndUndoes
Redoes
EndRedoes
EndUndoRedoHistory
UndoRedoHistory
Layer: 1
Undoes
EndUndoes
Redoes
EndRedoes
EndUndoRedoHistory
Fore
SplineSet
82 417 m 1
 82 501 l 1
 485 501 l 1
 485 417 l 1
 82 417 l 1
83 220 m 1
 83 303 l 1
 485 303 l 1
 485 220 l 1
 83 220 l 1
EndSplineSet
EndChar

StartChar: eth
Encoding: 240 240 151
Width: 987
VWidth: 0
GlyphClass: 2
Flags: W
HStem: -20 82<260.813 424.764> 427 81<254.752 428.349> 582 78<366 473 589 672>
VStem: 81 101<146.351 348.565> 520 97<408 557.975>
LayerCount: 2
UndoRedoHistory
Layer: 0
Undoes
EndUndoes
Redoes
EndRedoes
EndUndoRedoHistory
UndoRedoHistory
Layer: 1
Undoes
EndUndoes
Redoes
EndRedoes
EndUndoRedoHistory
Fore
SplineSet
346 -20 m 0
 225 -20 138 46 100 143 c 1
 86 175 81 211 81 249 c 0
 81 373 144 453 229 489 c 0
 258 502 291 508 327 508 c 0
 420 508 483 473 520 408 c 1
 520 414 l 1
 520 479 513 531 501 582 c 1
 366 582 l 1
 366 660 l 1
 473 660 l 1
 442 722 399 764 342 799 c 1
 383 848 l 1
 466 812 521 747 560 660 c 1
 672 660 l 1
 672 582 l 1
 589 582 l 1
 606 522 617 456 617 379 c 0
 617 200 567 63 458 6 c 1
 425 -11 388 -20 346 -20 c 0
342 62 m 0
 458 62 512 160 512 287 c 2
 512 301 l 1
 489 374 429 427 341 427 c 0
 238 427 182 359 182 246 c 0
 182 161 219 101 275 75 c 0
 295 66 317 62 342 62 c 0
EndSplineSet
EndChar

StartChar: exclam
Encoding: 33 33 152
Width: 381
VWidth: 0
GlyphClass: 2
Flags: W
HStem: -6 155<134.24 248.625> 691 20G<111 265>
VStem: 110 161<17.8481 125.944> 156 63<243 314.217>
LayerCount: 2
UndoRedoHistory
Layer: 0
Undoes
EndUndoes
Redoes
EndRedoes
EndUndoRedoHistory
UndoRedoHistory
Layer: 1
Undoes
EndUndoes
Redoes
EndRedoes
EndUndoRedoHistory
Fore
SplineSet
191 -6 m 0xe0
 144 -6 110 27 110 73 c 0
 110 118 144 149 191 149 c 0
 238 149 271 117 271 71 c 0
 271 25 238 -6 191 -6 c 0xe0
156 243 m 1xd0
 111 711 l 1
 265 711 l 1
 219 243 l 1
 156 243 l 1xd0
EndSplineSet
EndChar

StartChar: f
Encoding: 102 102 154
Width: 393
VWidth: 0
GlyphClass: 2
Flags: W
HStem: 0 21G<127 246> 421 80<32 127 246 393> 645 92<274.421 403>
VStem: 127 119<0 421 501 619.08>
AnchorPoint: "bottom" 179 0 basechar 0
AnchorPoint: "top" 265 715 basechar 0
LayerCount: 2
UndoRedoHistory
Layer: 0
Undoes
EndUndoes
Redoes
EndRedoes
EndUndoRedoHistory
UndoRedoHistory
Layer: 1
Undoes
EndUndoes
Redoes
EndRedoes
EndUndoRedoHistory
Fore
SplineSet
246 0 m 1
 127 0 l 1
 127 421 l 1
 32 421 l 1
 32 501 l 1
 127 501 l 1
 127 549 l 2
 127 691 199 737 352 737 c 2
 403 737 l 1
 403 645 l 1
 360 645 l 2
 258 645 246 611 246 532 c 2
 246 501 l 1
 393 501 l 1
 393 421 l 1
 246 421 l 1
 246 0 l 1
EndSplineSet
EndChar

StartChar: f.alt
Encoding: 65539 -1 155
Width: 371
VWidth: 0
Flags: W
HStem: -200 96<49 100.353> 421 80<36 126 245 357> 631 92<267.884 381>
VStem: 126 119<-80.1804 421 501 605.08>
LayerCount: 2
UndoRedoHistory
Layer: 0
Undoes
EndUndoes
Redoes
EndRedoes
EndUndoRedoHistory
UndoRedoHistory
Layer: 1
Undoes
EndUndoes
Redoes
EndRedoes
EndUndoRedoHistory
Fore
SplineSet
49 -200 m 1
 39 -104 l 1
 102 -104 126 -75 126 -9 c 2
 126 421 l 1
 36 421 l 1
 36 501 l 1
 126 501 l 1
 126 535 l 2
 126 677 198 723 331 723 c 2
 381 723 l 1
 381 631 l 1
 340 631 l 2
 263 631 245 597 245 518 c 2
 245 501 l 1
 357 501 l 1
 357 421 l 1
 245 421 l 1
 245 -5 l 2
 245 -133 180 -200 49 -200 c 1
EndSplineSet
EndChar

StartChar: five
Encoding: 53 53 156
Width: 612
VWidth: 0
GlyphClass: 2
Flags: W
HStem: -12 102<209.63 372.426> 358 96<260.331 379.846> 614 97<244 493>
VStem: 135 109<416 614> 135 102<416 614> 428 118<147.087 305.907>
LayerCount: 2
UndoRedoHistory
Layer: 0
Undoes
EndUndoes
Redoes
EndRedoes
EndUndoRedoHistory
UndoRedoHistory
Layer: 1
Undoes
EndUndoes
Redoes
EndRedoes
EndUndoRedoHistory
Fore
SplineSet
310 -12 m 0xec
 226 -12 164 14 102 65 c 1
 146 157 l 1
 190 117 236 90 302 90 c 0
 379 90 428 153 428 224 c 0
 428 312 376 357 321 358 c 1
 285 358 254 350 221 314 c 1
 135 314 l 1
 135 711 l 1xec
 493 711 l 1
 493 614 l 1
 244 614 l 1xf4
 237 416 l 1
 258 433 288 454 348 454 c 0
 440 454 546 394 546 228 c 0
 546 68 432 -12 310 -12 c 0xec
EndSplineSet
EndChar

StartChar: florin
Encoding: 402 402 157
Width: 998
VWidth: 0
GlyphClass: 2
Flags: W
HStem: -286 80<74.3262 173.584> 365 80<219 294 395 497> 646 82<441.957 570.283>
LayerCount: 2
UndoRedoHistory
Layer: 0
Undoes
EndUndoes
Redoes
EndRedoes
EndUndoRedoHistory
UndoRedoHistory
Layer: 1
Undoes
EndUndoes
Redoes
EndRedoes
EndUndoRedoHistory
Fore
SplineSet
127 -286 m 0
 109 -286 89 -282 68 -276 c 1
 75 -197 l 1
 91 -203 106 -206 120 -206 c 0
 184 -206 203 -143 214 -91 c 1
 247 54 268 213 294 365 c 1
 213 365 l 1
 219 445 l 1
 306 445 l 1
 318 532 l 1
 332 643 374 728 493 728 c 0
 521 728 550 723 575 717 c 1
 570 634 l 1
 551 641 530 646 508 646 c 0
 443 646 423 614 413 558 c 1
 395 445 l 1
 502 445 l 1
 497 365 l 1
 383 365 l 1
 317 -26 l 1
 299 -124 279 -220 213 -264 c 0
 192 -278 162 -286 127 -286 c 0
EndSplineSet
EndChar

StartChar: four
Encoding: 52 52 158
Width: 612
VWidth: 0
GlyphClass: 2
Flags: W
HStem: 0 21G<377 479> 160 93<203 377 479 576> 691 20G<246.301 363>
VStem: 377 102<0 160 253 424>
LayerCount: 2
UndoRedoHistory
Layer: 0
Undoes
EndUndoes
Redoes
EndRedoes
EndUndoRedoHistory
UndoRedoHistory
Layer: 1
Undoes
EndUndoes
Redoes
EndRedoes
EndUndoRedoHistory
Fore
SplineSet
479 424 m 1
 479 253 l 1
 576 253 l 1
 576 160 l 1
 479 160 l 1
 479 0 l 1
 377 0 l 1
 377 160 l 1
 75 160 l 1
 75 246 l 1
 254 711 l 1
 363 711 l 1
 203 253 l 1
 377 253 l 1
 377 424 l 1
 479 424 l 1
EndSplineSet
EndChar

StartChar: four.alt
Encoding: 65540 -1 159
Width: 612
VWidth: 0
Flags: W
HStem: 0 21G<369 479> 160 90<168 369 479 576> 691 20G<339.269 479>
VStem: 369 110<0 160 250 570>
LayerCount: 2
UndoRedoHistory
Layer: 0
Undoes
EndUndoes
Redoes
EndRedoes
EndUndoRedoHistory
UndoRedoHistory
Layer: 1
Undoes
EndUndoes
Redoes
EndRedoes
EndUndoRedoHistory
Fore
SplineSet
369 0 m 1
 369 160 l 1
 56 160 l 1
 56 246 l 1
 352 711 l 1
 479 711 l 1
 479 250 l 1
 576 250 l 1
 576 160 l 1
 479 160 l 1
 479 0 l 1
 369 0 l 1
168 250 m 1
 369 250 l 1
 369 570 l 1
 283 431 l 1
 168 250 l 1
EndSplineSet
EndChar

StartChar: fraction
Encoding: 8260 8260 160
Width: 285
VWidth: 0
GlyphClass: 2
Flags: W
HStem: 0 21G<-285 -186.287>
LayerCount: 2
UndoRedoHistory
Layer: 0
Undoes
EndUndoes
Redoes
EndRedoes
EndUndoRedoHistory
UndoRedoHistory
Layer: 1
Undoes
EndUndoes
Redoes
EndRedoes
EndUndoRedoHistory
Fore
SplineSet
-285 0 m 1
 199 823 l 1
 284 823 l 1
 -198 0 l 1
 -285 0 l 1
EndSplineSet
EndChar

StartChar: g
Encoding: 103 103 161
Width: 588
VWidth: 0
GlyphClass: 2
Flags: W
HStem: -255 95<160.497 338.526> 0 93<224.228 336.714> 421 91<251.237 393.972>
VStem: 55 121<147.324 335.771> 396 119<-98.0625 63 163.155 415.388>
AnchorPoint: "bottom" 287 -250 basechar 0
AnchorPoint: "top" 318 501 basechar 0
LayerCount: 2
UndoRedoHistory
Layer: 0
Undoes
EndUndoes
Redoes
EndRedoes
EndUndoRedoHistory
UndoRedoHistory
Layer: 1
Undoes
EndUndoes
Redoes
EndRedoes
EndUndoRedoHistory
Fore
SplineSet
272 -255 m 0
 218 -255 146 -240 88 -209 c 1
 108 -111 l 1
 154 -140 209 -160 261 -160 c 0
 329 -160 396 -123 396 -5 c 2
 396 63 l 1
 363 18 310 0 263 0 c 0
 144 0 55 98 55 225 c 0
 55 394 161 512 324 512 c 0
 386 512 468 487 515 460 c 1
 515 18 l 2
 515 -156 405 -255 272 -255 c 0
277 93 m 0
 349 93 396 172 396 266 c 2
 396 409 l 1
 378 416 351 421 325 421 c 0
 242 421 176 354 176 229 c 0
 176 155 223 93 277 93 c 0
EndSplineSet
EndChar

StartChar: germandbls
Encoding: 223 223 163
Width: 602
VWidth: 0
GlyphClass: 2
Flags: W
HStem: 0 21G<94 212> 641 82<250.627 366.563>
VStem: 94 118<0 600.298>
LayerCount: 2
UndoRedoHistory
Layer: 0
Undoes
EndUndoes
Redoes
EndRedoes
EndUndoRedoHistory
UndoRedoHistory
Layer: 1
Undoes
EndUndoes
Redoes
EndRedoes
EndUndoRedoHistory
Fore
SplineSet
577 157 m 0
 577 -17 360 -64 263 53 c 1
 281 128 l 1
 347 56 459 62 469 140 c 0
 479 221 411 275 296 347 c 0
 270 363 262 415 304 438 c 0
 360 469 402 479 392 568 c 0
 387 615 352 641 311 641 c 0
 248 641 212 596 212 504 c 2
 212 0 l 1
 94 0 l 1
 94 510 l 2
 94 647 190 723 311 723 c 0
 436 723 505 655 510 568 c 0
 515 472 468 432 396 400 c 0
 389 397 384 387 396 380 c 0
 496 320 577 281 577 157 c 0
EndSplineSet
EndChar

StartChar: grave
Encoding: 96 96 164
Width: 514
VWidth: 0
GlyphClass: 2
Flags: W
HStem: 567 156
VStem: 103 253
LayerCount: 2
UndoRedoHistory
Layer: 0
Undoes
EndUndoes
Redoes
EndRedoes
EndUndoRedoHistory
UndoRedoHistory
Layer: 1
Undoes
EndUndoes
Redoes
EndRedoes
EndUndoRedoHistory
Fore
SplineSet
264 567 m 1
 103 723 l 1
 236 723 l 1
 356 567 l 1
 264 567 l 1
EndSplineSet
EndChar

StartChar: greater
Encoding: 62 62 165
Width: 594
VWidth: 0
GlyphClass: 2
Flags: W
LayerCount: 2
UndoRedoHistory
Layer: 0
Undoes
EndUndoes
Redoes
EndRedoes
EndUndoRedoHistory
UndoRedoHistory
Layer: 1
Undoes
EndUndoes
Redoes
EndRedoes
EndUndoRedoHistory
Fore
SplineSet
84 533 m 1
 547 321 l 1
 547 259 l 1
 82 38 l 1
 82 136 l 1
 392 289 l 1
 84 435 l 1
 84 533 l 1
EndSplineSet
EndChar

StartChar: greaterequal
Encoding: 8805 8805 166
Width: 1131
VWidth: 0
GlyphClass: 2
Flags: W
HStem: 7 71<144 689> 683 20G<163 200.868>
LayerCount: 2
UndoRedoHistory
Layer: 0
Undoes
EndUndoes
Redoes
EndRedoes
EndUndoRedoHistory
UndoRedoHistory
Layer: 1
Undoes
EndUndoes
Redoes
EndRedoes
EndUndoRedoHistory
Fore
SplineSet
144 7 m 1
 144 78 l 1
 689 78 l 1
 689 7 l 1
 144 7 l 1
163 703 m 1
 678 431 l 1
 678 385 l 1
 161 127 l 1
 161 208 l 1
 576 408 l 1
 163 623 l 1
 163 703 l 1
EndSplineSet
EndChar

StartChar: guillemotleft
Encoding: 171 171 167
Width: 595
VWidth: 0
GlyphClass: 2
Flags: W
LayerCount: 2
UndoRedoHistory
Layer: 0
Undoes
EndUndoes
Redoes
EndRedoes
EndUndoRedoHistory
UndoRedoHistory
Layer: 1
Undoes
EndUndoes
Redoes
EndRedoes
EndUndoRedoHistory
Fore
SplineSet
244 147 m 1
 93 359 l 1
 247 573 l 1
 330 573 l 1
 190 359 l 1
 325 147 l 1
 244 147 l 1
438 147 m 1
 296 359 l 1
 440 573 l 1
 532 573 l 1
 384 359 l 1
 528 147 l 1
 438 147 l 1
EndSplineSet
EndChar

StartChar: guillemotright
Encoding: 187 187 168
Width: 609
VWidth: 0
GlyphClass: 2
Flags: W
LayerCount: 2
UndoRedoHistory
Layer: 0
Undoes
EndUndoes
Redoes
EndRedoes
EndUndoRedoHistory
UndoRedoHistory
Layer: 1
Undoes
EndUndoes
Redoes
EndRedoes
EndUndoRedoHistory
Fore
SplineSet
365 573 m 1
 517 360 l 1
 363 147 l 1
 281 147 l 1
 418 360 l 1
 285 573 l 1
 365 573 l 1
158 573 m 1
 300 360 l 1
 155 147 l 1
 63 147 l 1
 212 360 l 1
 67 573 l 1
 158 573 l 1
EndSplineSet
EndChar

StartChar: guilsinglleft
Encoding: 8249 8249 169
Width: 556
VWidth: 0
GlyphClass: 2
Flags: W
VStem: 95 248
LayerCount: 2
UndoRedoHistory
Layer: 0
Undoes
EndUndoes
Redoes
EndRedoes
EndUndoRedoHistory
UndoRedoHistory
Layer: 1
Undoes
EndUndoes
Redoes
EndRedoes
EndUndoRedoHistory
Fore
SplineSet
250 147 m 1
 95 359 l 1
 252 573 l 1
 343 573 l 1
 192 359 l 1
 339 147 l 1
 250 147 l 1
EndSplineSet
EndChar

StartChar: guilsinglright
Encoding: 8250 8250 170
Width: 556
VWidth: 0
GlyphClass: 2
Flags: W
VStem: 93 249
LayerCount: 2
UndoRedoHistory
Layer: 0
Undoes
EndUndoes
Redoes
EndRedoes
EndUndoRedoHistory
UndoRedoHistory
Layer: 1
Undoes
EndUndoes
Redoes
EndRedoes
EndUndoRedoHistory
Fore
SplineSet
187 573 m 1
 342 360 l 1
 184 147 l 1
 93 147 l 1
 244 360 l 1
 98 573 l 1
 187 573 l 1
EndSplineSet
EndChar

StartChar: h
Encoding: 104 104 171
Width: 625
VWidth: 0
GlyphClass: 2
Flags: W
HStem: -8 94<538.369 586> 0 21G<86 204> 421 91<251.955 371.189>
VStem: 86 118<0 369.401 449 723> 407 118<101.524 384.547>
AnchorPoint: "bottom" 315 0 basechar 0
AnchorPoint: "top" 360 615 basechar 0
LayerCount: 2
UndoRedoHistory
Layer: 0
Undoes
EndUndoes
Redoes
EndRedoes
EndUndoRedoHistory
UndoRedoHistory
Layer: 1
Undoes
EndUndoes
Redoes
EndRedoes
EndUndoRedoHistory
Fore
SplineSet
586 -8 m 1xb8
 564 -8 l 2xb8
 449 -8 407 43 407 146 c 2
 407 296 l 2
 407 371 377 421 315 421 c 0
 236 421 204 350 204 282 c 2
 204 0 l 1
 86 0 l 1x78
 86 723 l 1
 204 723 l 1
 204 449 l 1
 244 500 300 512 344 512 c 0
 455 512 525 427 525 297 c 2
 525 172 l 2
 525 110 540 86 592 86 c 2
 603 86 l 1
 586 -8 l 1xb8
EndSplineSet
EndChar

StartChar: hbar
Encoding: 295 295 172
Width: 604
VWidth: 0
GlyphClass: 2
Flags: W
HStem: -8 94<538.369 586> 0 21<86 204> 421 91<251.955 371.189> 563 77<17 375>
VStem: 86 118<0 369.401 449 723> 407 118<101.524 384.547>
LayerCount: 2
UndoRedoHistory
Layer: 0
Undoes
EndUndoes
Redoes
EndRedoes
EndUndoRedoHistory
UndoRedoHistory
Layer: 1
Undoes
EndUndoes
Redoes
EndRedoes
EndUndoRedoHistory
Fore
SplineSet
17 563 m 1x3c
 17 640 l 1
 375 640 l 1
 375 563 l 1
 17 563 l 1x3c
EndSplineSet
Refer: 171 104 N 1 0 0 1 0 0 2
EndChar

StartChar: hungarumlaut
Encoding: 733 733 173
Width: 822
VWidth: 0
GlyphClass: 2
Flags: W
HStem: 1009 180
AnchorPoint: "top" 154 562 mark 0
LayerCount: 2
UndoRedoHistory
Layer: 0
Undoes
EndUndoes
Redoes
EndRedoes
EndUndoRedoHistory
UndoRedoHistory
Layer: 1
Undoes
EndUndoes
Redoes
EndRedoes
EndUndoRedoHistory
Fore
SplineSet
145 1009 m 1
 268 1189 l 1
 359 1189 l 1
 212 1009 l 1
 145 1009 l 1
294 1009 m 1
 410 1189 l 1
 511 1189 l 1
 356 1009 l 1
 294 1009 l 1
EndSplineSet
EndChar

StartChar: hyphen
Encoding: 45 45 174
Width: 544
VWidth: 0
GlyphClass: 2
Flags: W
HStem: 312 97<82 462>
LayerCount: 2
UndoRedoHistory
Layer: 0
Undoes
EndUndoes
Redoes
EndRedoes
EndUndoRedoHistory
UndoRedoHistory
Layer: 1
Undoes
EndUndoes
Redoes
EndRedoes
EndUndoRedoHistory
Fore
SplineSet
82 312 m 1
 82 409 l 1
 462 409 l 1
 462 312 l 1
 82 312 l 1
EndSplineSet
EndChar

StartChar: i
Encoding: 105 105 175
Width: 383
VWidth: 0
GlyphClass: 2
Flags: W
HStem: 481 20G<96 214> 580 143<98.0956 218.007>
VStem: 79 158<599 703.5> 96 118<99.2929 501>
AnchorPoint: "bottom" 121 0 basechar 0
LayerCount: 2
UndoRedoHistory
Layer: 0
Undoes
EndUndoes
Redoes
EndRedoes
EndUndoRedoHistory
UndoRedoHistory
Layer: 1
Undoes
EndUndoes
Redoes
EndRedoes
EndUndoRedoHistory
Fore
SplineSet
365 16 m 1xd0
 238 -34 96 -12 96 165 c 2
 96 501 l 1
 214 501 l 1
 214 163 l 2
 214 77 266 76 350 99 c 1
 365 16 l 1xd0
158 580 m 0
 110 580 79 606 79 651 c 0
 79 696 110 723 159 723 c 0
 206 723 237 695 237 651 c 0xe0
 237 607 206 580 158 580 c 0
EndSplineSet
EndChar

StartChar: infinity
Encoding: 8734 8734 182
Width: 1416
VWidth: 0
GlyphClass: 2
Flags: W
HStem: 203 68<219.673 351.495 629.781 764.598> 543 66<212.633 350.428 630.123 761.843>
VStem: 87 75<330.419 487.924> 812 80<323.892 493.266>
LayerCount: 2
UndoRedoHistory
Layer: 0
Undoes
EndUndoes
Redoes
EndRedoes
EndUndoRedoHistory
UndoRedoHistory
Layer: 1
Undoes
EndUndoes
Redoes
EndRedoes
EndUndoRedoHistory
Fore
SplineSet
283 203 m 0
 192 203 131 262 103 335 c 0
 93 361 87 389 87 418 c 0
 87 477 116 523 149 553 c 1
 181 583 227 609 281 609 c 0
 356 609 406 568 445 524 c 0
 461 506 476 486 491 464 c 1
 530 520 572 575 637 599 c 0
 656 606 677 609 699 609 c 0
 788 609 850 560 878 489 c 0
 888 465 892 438 892 409 c 0
 892 311 835 246 769 218 c 0
 746 208 722 203 697 203 c 0
 658 203 624 215 591 239 c 0
 558 263 524 299 490 347 c 1
 451 291 406 237 342 213 c 0
 323 206 304 203 283 203 c 0
285 271 m 0
 324 271 352 290 376 311 c 0
 405 336 432 370 455 405 c 1
 423 457 386 508 331 532 c 0
 315 539 297 543 279 543 c 0
 221 543 186 506 170 459 c 0
 165 442 162 426 162 407 c 0
 162 345 196 303 235 283 c 0
 250 276 266 271 285 271 c 0
699 271 m 0
 777 271 812 335 812 422 c 0
 812 479 780 516 743 533 c 0
 728 539 713 543 696 543 c 0
 657 543 626 522 602 501 c 0
 573 476 547 442 526 407 c 1
 553 367 578 333 612 306 c 0
 636 286 661 271 699 271 c 0
EndSplineSet
EndChar

StartChar: integral
Encoding: 8747 8747 183
Width: 595
VWidth: 0
GlyphClass: 2
Flags: W
HStem: -343 77<111.85 235.935> 743 77<376.222 501.195>
VStem: 262 88<-237.94 715.688>
LayerCount: 2
UndoRedoHistory
Layer: 0
Undoes
EndUndoes
Redoes
EndRedoes
EndUndoRedoHistory
UndoRedoHistory
Layer: 1
Undoes
EndUndoes
Redoes
EndRedoes
EndUndoRedoHistory
Fore
SplineSet
189 -343 m 0
 155 -343 138 -338 111 -331 c 1
 110 -257 l 1
 125 -263 152 -266 173 -266 c 0
 249 -266 262 -219 262 -141 c 2
 262 605 l 2
 262 732 303 820 424 820 c 0
 455 820 477 815 502 809 c 1
 503 735 l 1
 488 741 461 743 440 743 c 0
 364 743 350 697 350 619 c 2
 350 -127 l 2
 350 -254 311 -343 189 -343 c 0
EndSplineSet
EndChar

StartChar: j
Encoding: 106 106 186
Width: 322
VWidth: 0
GlyphClass: 2
Flags: W
HStem: -244 86<-22.8848 94.8509> 481 20G<117 235> 580 143<121.642 241.554>
VStem: 103 158<600.165 702.698> 117 118<-136.958 501>
AnchorPoint: "bottom" 330 0 basechar 0
AnchorPoint: "top" 342 750 basechar 0
LayerCount: 2
UndoRedoHistory
Layer: 0
Undoes
EndUndoes
Redoes
EndRedoes
EndUndoRedoHistory
UndoRedoHistory
Layer: 1
Undoes
EndUndoes
Redoes
EndRedoes
EndUndoRedoHistory
Fore
SplineSet
181 580 m 0xf0
 133 580 103 606 103 651 c 0
 103 696 133 723 182 723 c 0
 229 723 261 695 261 651 c 0
 261 607 229 580 181 580 c 0xf0
54 -244 m 0
 4 -244 -32 -232 -32 -232 c 1
 -21 -149 l 1
 -21 -149 10 -158 43 -158 c 0
 91 -158 117 -137 117 -44 c 2
 117 501 l 1
 235 501 l 1
 235 -45 l 2xe8
 235 -158 203 -244 54 -244 c 0
EndSplineSet
EndChar

StartChar: k
Encoding: 107 107 188
Width: 584
VWidth: 0
GlyphClass: 2
Flags: W
HStem: 0 21G<94 212 413.298 566> 481 20G<401.418 560>
VStem: 94 118<0 723>
AnchorPoint: "bottom" 301 -0 basechar 0
AnchorPoint: "top" 375 562 basechar 0
LayerCount: 2
UndoRedoHistory
Layer: 0
Undoes
EndUndoes
Redoes
EndRedoes
EndUndoRedoHistory
UndoRedoHistory
Layer: 1
Undoes
EndUndoes
Redoes
EndRedoes
EndUndoRedoHistory
Fore
SplineSet
566 0 m 1
 432 0 l 1
 187 262 l 1
 421 501 l 1
 560 501 l 1
 327 262 l 1
 566 0 l 1
212 0 m 1
 94 0 l 1
 94 723 l 1
 212 723 l 1
 212 0 l 1
EndSplineSet
EndChar

StartChar: k.alt
Encoding: 65541 -1 189
Width: 571
VWidth: 0
GlyphClass: 2
Flags: W
HStem: 481 20G<388.817 474.667>
VStem: 79 118<190 718>
LayerCount: 2
UndoRedoHistory
Layer: 0
Undoes
EndUndoes
Redoes
EndRedoes
EndUndoRedoHistory
UndoRedoHistory
Layer: 1
Undoes
EndUndoes
Redoes
EndRedoes
EndUndoRedoHistory
Fore
SplineSet
570 95 m 1
 552 1 l 1
 494 -21 437 -21 381 60 c 1
 302 177 l 1
 190 21 l 2
 153 -31 79 -13 79 50 c 2
 79 718 l 1
 197 718 l 1
 197 190 l 1
 402 501 l 1
 511 471 l 1
 372 263 l 1
 455 142 l 1
 507 76 515 80 570 95 c 1
EndSplineSet
EndChar

StartChar: kgreenlandic
Encoding: 312 312 191
Width: 905
VWidth: 0
GlyphClass: 2
Flags: W
HStem: 0 21G<158 252 497.37 642>
VStem: 158 94<0 270 319 588>
LayerCount: 2
UndoRedoHistory
Layer: 0
Undoes
EndUndoes
Redoes
EndRedoes
EndUndoRedoHistory
UndoRedoHistory
Layer: 1
Undoes
EndUndoes
Redoes
EndRedoes
EndUndoRedoHistory
Fore
SplineSet
158 0 m 1
 158 588 l 1
 252 588 l 1
 252 319 l 1
 494 588 l 1
 621 588 l 1
 336 293 l 1
 435 193 533 100 642 0 c 1
 517 0 l 1
 252 270 l 1
 252 0 l 1
 158 0 l 1
EndSplineSet
EndChar

StartChar: l
Encoding: 108 108 192
Width: 373
VWidth: 0
GlyphClass: 2
Flags: W
VStem: 94 118<99.2929 723>
AnchorPoint: "bottom" 129 0 basechar 0
AnchorPoint: "top" 130 720 basechar 0
LayerCount: 2
UndoRedoHistory
Layer: 0
Undoes
EndUndoes
Redoes
EndRedoes
EndUndoRedoHistory
UndoRedoHistory
Layer: 1
Undoes
EndUndoes
Redoes
EndRedoes
EndUndoRedoHistory
Fore
SplineSet
368 16 m 1
 231 -34 94 -12 94 165 c 2
 94 723 l 1
 212 723 l 1
 212 163 l 2
 212 77 254 76 353 99 c 1
 368 16 l 1
EndSplineSet
EndChar

StartChar: less
Encoding: 60 60 194
Width: 594
VWidth: 0
GlyphClass: 2
Flags: W
LayerCount: 2
UndoRedoHistory
Layer: 0
Undoes
EndUndoes
Redoes
EndRedoes
EndUndoRedoHistory
UndoRedoHistory
Layer: 1
Undoes
EndUndoes
Redoes
EndRedoes
EndUndoRedoHistory
Fore
SplineSet
510 41 m 1
 47 253 l 1
 47 315 l 1
 512 536 l 1
 512 438 l 1
 202 286 l 1
 510 140 l 1
 510 41 l 1
EndSplineSet
EndChar

StartChar: lessequal
Encoding: 8804 8804 195
Width: 1132
VWidth: 0
GlyphClass: 2
Flags: W
HStem: 7 71<144 691> 682 20G<637.288 675>
LayerCount: 2
UndoRedoHistory
Layer: 0
Undoes
EndUndoes
Redoes
EndRedoes
EndUndoRedoHistory
UndoRedoHistory
Layer: 1
Undoes
EndUndoes
Redoes
EndRedoes
EndUndoRedoHistory
Fore
SplineSet
675 126 m 1
 164 384 l 1
 164 431 l 1
 675 702 l 1
 675 621 l 1
 264 409 l 1
 675 207 l 1
 675 126 l 1
144 7 m 1
 144 78 l 1
 691 78 l 1
 691 7 l 1
 144 7 l 1
EndSplineSet
EndChar

StartChar: logicalnot
Encoding: 172 172 196
Width: 866
VWidth: 0
GlyphClass: 2
Flags: W
HStem: 446 80<138 616>
VStem: 616 86<205 446>
LayerCount: 2
UndoRedoHistory
Layer: 0
Undoes
EndUndoes
Redoes
EndRedoes
EndUndoRedoHistory
UndoRedoHistory
Layer: 1
Undoes
EndUndoes
Redoes
EndRedoes
EndUndoRedoHistory
Fore
SplineSet
616 205 m 1
 616 446 l 1
 138 446 l 1
 138 526 l 1
 702 526 l 1
 702 205 l 1
 616 205 l 1
EndSplineSet
EndChar

StartChar: lozenge
Encoding: 9674 9674 197
Width: 1043
VWidth: 0
GlyphClass: 2
Flags: W
HStem: -39 21G<334.71 411.567>
LayerCount: 2
UndoRedoHistory
Layer: 0
Undoes
EndUndoes
Redoes
EndRedoes
EndUndoRedoHistory
UndoRedoHistory
Layer: 1
Undoes
EndUndoes
Redoes
EndRedoes
EndUndoRedoHistory
Fore
SplineSet
373 43 m 1
 433 163 499 277 565 395 c 1
 501 513 437 627 378 746 c 1
 318 625 253 513 187 396 c 1
 251 278 313 162 373 43 c 1
346 -39 m 1
 101 395 l 1
 350 830 l 1
 405 830 l 1
 651 395 l 1
 400 -39 l 1
 346 -39 l 1
EndSplineSet
EndChar

StartChar: lslash
Encoding: 322 322 198
Width: 437
VWidth: 0
GlyphClass: 2
Flags: W
HStem: 0 21G<101 196>
VStem: 101 95<0 395 530 855>
LayerCount: 2
UndoRedoHistory
Layer: 0
Undoes
EndUndoes
Redoes
EndRedoes
EndUndoRedoHistory
UndoRedoHistory
Layer: 1
Undoes
EndUndoes
Redoes
EndRedoes
EndUndoRedoHistory
Fore
SplineSet
101 0 m 1
 101 395 l 1
 5 337 l 1
 5 416 l 1
 101 474 l 1
 101 855 l 1
 196 855 l 1
 196 530 l 1
 294 589 l 1
 294 510 l 1
 196 452 l 1
 196 0 l 1
 101 0 l 1
EndSplineSet
EndChar

StartChar: m
Encoding: 109 109 199
Width: 937
VWidth: 0
GlyphClass: 2
Flags: W
HStem: -8 94<849.893 899> 0 21G<99 217 411 529> 421 91<260.016 374.925 569.487 683.688> 481 20G<96.3721 157.5>
VStem: 99 118<0 374.251> 411 118<0 376.892> 719 118<97.2929 380.475>
AnchorPoint: "bottom" 462 0 basechar 0
AnchorPoint: "top" 465 500 basechar 0
LayerCount: 2
UndoRedoHistory
Layer: 0
Undoes
EndUndoes
Redoes
EndRedoes
EndUndoRedoHistory
UndoRedoHistory
Layer: 1
Undoes
EndUndoes
Redoes
EndRedoes
EndUndoRedoHistory
Fore
SplineSet
899 -8 m 1xae
 884 -8 l 2xae
 754 -8 719 58 719 166 c 2
 719 296 l 2
 719 371 688 421 625 421 c 0
 573 421 529 372 529 300 c 2
 529 0 l 1
 411 0 l 1
 411 296 l 2
 411 380 371 421 318 421 c 0x6e
 257 421 217 365 217 289 c 2
 217 0 l 1
 99 0 l 1
 99 313 l 2
 99 362 83 419 37 458 c 1
 148 501 l 1x5e
 167 487 191 454 197 430 c 1
 227 487 292 512 353 512 c 0
 424 512 473 471 496 421 c 1
 536 492 606 512 652 512 c 0
 767 512 837 427 837 297 c 2
 837 174 l 2
 837 115 847 86 903 86 c 2
 916 86 l 1
 899 -8 l 1xae
EndSplineSet
EndChar

StartChar: macron
Encoding: 175 175 200
Width: 621
VWidth: 0
GlyphClass: 2
Flags: W
HStem: 641 77<146 466>
VStem: 146 320<641 718>
AnchorPoint: "top" 182 562 mark 0
LayerCount: 2
UndoRedoHistory
Layer: 0
Undoes
EndUndoes
Redoes
EndRedoes
EndUndoRedoHistory
UndoRedoHistory
Layer: 1
Undoes
EndUndoes
Redoes
EndRedoes
EndUndoRedoHistory
Fore
SplineSet
146 641 m 1
 146 718 l 1
 466 718 l 1
 466 641 l 1
 146 641 l 1
EndSplineSet
EndChar

StartChar: minus
Encoding: 8722 8722 201
Width: 544
VWidth: 0
GlyphClass: 2
Flags: W
HStem: 312 97<82 462>
LayerCount: 2
UndoRedoHistory
Layer: 0
Undoes
EndUndoes
Redoes
EndRedoes
EndUndoRedoHistory
UndoRedoHistory
Layer: 1
Undoes
EndUndoes
Redoes
EndRedoes
EndUndoRedoHistory
Fore
SplineSet
82 312 m 1
 82 409 l 1
 462 409 l 1
 462 312 l 1
 82 312 l 1
EndSplineSet
EndChar

StartChar: multiply
Encoding: 215 215 202
Width: 612
VWidth: 0
GlyphClass: 2
Flags: W
LayerCount: 2
UndoRedoHistory
Layer: 0
Undoes
EndUndoes
Redoes
EndRedoes
EndUndoRedoHistory
UndoRedoHistory
Layer: 1
Undoes
EndUndoes
Redoes
EndRedoes
EndUndoRedoHistory
Fore
SplineSet
146 132 m 1
 87 191 l 1
 252 362 l 1
 87 532 l 1
 146 591 l 1
 306 421 l 1
 465 591 l 1
 525 532 l 1
 359 362 l 1
 525 192 l 1
 465 132 l 1
 306 302 l 1
 146 132 l 1
EndSplineSet
EndChar

StartChar: n
Encoding: 110 110 203
Width: 638
VWidth: 0
GlyphClass: 2
Flags: W
HStem: -8 94<553.874 599> 0 21G<100 218> 421 91<270.305 388.382> 481 20G<95.8372 158.5>
VStem: 100 118<0 365.888> 419 118<99.5781 390.163>
AnchorPoint: "bottom" 330 0 basechar 0
AnchorPoint: "top" 342 750 basechar 0
LayerCount: 2
UndoRedoHistory
Layer: 0
Undoes
EndUndoes
Redoes
EndRedoes
EndUndoRedoHistory
UndoRedoHistory
Layer: 1
Undoes
EndUndoes
Redoes
EndRedoes
EndUndoRedoHistory
Fore
SplineSet
616 86 m 1xac
 599 -8 l 1
 582 -8 l 2
 455 -8 419 59 419 180 c 2
 419 295 l 2
 419 370 398 421 333 421 c 0xac
 278 421 218 374 218 289 c 2
 218 0 l 1
 100 0 l 1
 100 314 l 2
 100 373 79 420 37 458 c 1
 147 501 l 1x5c
 170 483 192 448 198 426 c 1
 222 472 284 512 361 512 c 0
 473 512 537 427 537 297 c 2
 537 168 l 2
 537 115 548 86 607 86 c 2
 616 86 l 1xac
EndSplineSet
EndChar

StartChar: nine
Encoding: 57 57 205
Width: 612
VWidth: 0
GlyphClass: 2
Flags: W
HStem: 0 21G<404 511> 505 20G<488.938 511>
VStem: 78 116<397.824 565.743> 404 107<0 0 508.042 613.652>
LayerCount: 2
UndoRedoHistory
Layer: 0
Undoes
EndUndoes
Redoes
EndRedoes
EndUndoRedoHistory
UndoRedoHistory
Layer: 1
Undoes
EndUndoes
Redoes
EndRedoes
EndUndoRedoHistory
Fore
SplineSet
316 365 m 0
 377 380 405 437 405 524 c 2
 405 603 l 1
 396 606 355 633 311 630 c 0
 236 624 194 555 194 479 c 0
 194 396 241 347 316 365 c 0
511 527 m 2
 511 443 442 288 308 270 c 0
 183 253 78 339 78 475 c 0
 78 623 185 719 303 723 c 0
 406 727 480 678 511 659 c 1
 511 527 l 2
511 0 m 1
 404 0 l 1
 404 428 l 1
 511 525 l 1
 511 0 l 1
EndSplineSet
EndChar

StartChar: nine.alt
Encoding: 65542 -1 206
Width: 612
VWidth: 0
GlyphClass: 2
Flags: W
HStem: 255 94<251.777 345.743> 621 102<243.622 390.705>
VStem: 74 115<411.805 568.397> 445 107<408.326 566.673>
LayerCount: 2
UndoRedoHistory
Layer: 0
Undoes
EndUndoes
Redoes
EndRedoes
EndUndoRedoHistory
UndoRedoHistory
Layer: 1
Undoes
EndUndoes
Redoes
EndRedoes
EndUndoRedoHistory
Fore
SplineSet
292 -58 m 1
 201 -3 l 1
 346 258 l 1
 341 255 329 255 304 255 c 0
 179 255 74 357 74 487 c 0
 74 648 202 723 314 723 c 0
 427 723 552 645 552 484 c 0
 552 423 506 317 465 250 c 1
 292 -58 l 1
320 349 m 0
 381 349 445 397 445 493 c 0
 445 582 380 621 318 621 c 0
 256 621 189 583 189 494 c 0
 189 398 257 349 320 349 c 0
EndSplineSet
EndChar

StartChar: notequal
Encoding: 8800 8800 207
Width: 1131
VWidth: 0
GlyphClass: 2
Flags: W
HStem: 199 70<148 311 411 689> 431 69<148 419 518 689>
LayerCount: 2
UndoRedoHistory
Layer: 0
Undoes
EndUndoes
Redoes
EndRedoes
EndUndoRedoHistory
UndoRedoHistory
Layer: 1
Undoes
EndUndoes
Redoes
EndRedoes
EndUndoRedoHistory
Fore
SplineSet
308 40 m 1
 243 50 l 1
 311 199 l 1
 148 199 l 1
 143 269 l 1
 343 269 l 1
 419 431 l 1
 148 431 l 1
 143 500 l 1
 448 500 l 1
 519 657 l 1
 584 646 l 1
 518 500 l 1
 689 500 l 1
 695 431 l 1
 487 431 l 1
 411 269 l 1
 689 269 l 1
 695 199 l 1
 381 199 l 1
 308 40 l 1
EndSplineSet
EndChar

StartChar: numbersign
Encoding: 35 35 209
Width: 672
VWidth: 0
GlyphClass: 2
Flags: W
HStem: 0 21G<144 225.507 358 436.507> 211 72<48 184 270 394 481 612> 441 71<87 223 310 433 520 648> 691 20G<266.281 345 476.482 558>
LayerCount: 2
UndoRedoHistory
Layer: 0
Undoes
EndUndoes
Redoes
EndRedoes
EndUndoRedoHistory
UndoRedoHistory
Layer: 1
Undoes
EndUndoes
Redoes
EndRedoes
EndUndoRedoHistory
Fore
SplineSet
144 0 m 1
 184 211 l 1
 42 211 l 1
 48 283 l 1
 196 283 l 1
 223 441 l 1
 79 441 l 1
 87 512 l 1
 233 512 l 1
 270 711 l 1
 345 711 l 1
 310 512 l 1
 445 512 l 1
 480 711 l 1
 558 711 l 1
 520 512 l 1
 656 512 l 1
 648 441 l 1
 508 441 l 1
 481 283 l 1
 620 283 l 1
 612 211 l 1
 470 211 l 1
 433 0 l 1
 358 0 l 1
 394 211 l 1
 259 211 l 1
 222 0 l 1
 144 0 l 1
270 283 m 1
 407 283 l 1
 433 441 l 1
 298 441 l 1
 270 283 l 1
EndSplineSet
EndChar

StartChar: o
Encoding: 111 111 210
Width: 594
VWidth: 0
GlyphClass: 2
Flags: W
HStem: -11 91<229.302 364.034> 421 91<229.15 363.661>
VStem: 55 121<139.346 362.496> 419 121<142.298 358.183>
AnchorPoint: "ogonek" 354 0 basechar 0
AnchorPoint: "bottom" 403 0 basechar 0
AnchorPoint: "top" 302 562 basechar 0
LayerCount: 2
UndoRedoHistory
Layer: 0
Undoes
EndUndoes
Redoes
EndRedoes
EndUndoRedoHistory
UndoRedoHistory
Layer: 1
Undoes
EndUndoes
Redoes
EndRedoes
EndUndoRedoHistory
Fore
SplineSet
297 80 m 0
 380 80 419 146 419 250 c 0
 419 354 379 421 296 421 c 0
 213 421 176 354 176 250 c 0
 176 146 213 80 297 80 c 0
296 -11 m 0
 144 -11 55 95 55 250 c 0
 55 405 144 512 296 512 c 0
 450 512 540 406 540 250 c 0
 540 95 450 -11 296 -11 c 0
EndSplineSet
EndChar

StartChar: oe
Encoding: 339 339 214
Width: 1642
VWidth: 0
GlyphClass: 2
Flags: W
HStem: -24 79<280.473 448.026 719.474 902.161> 262 79<631 933> 518 78<280.764 446.796 715.021 867.796>
VStem: 84 100<163.156 402.653> 535 96<160.601 262 341 412.938> 933 99<341 435.634>
LayerCount: 2
UndoRedoHistory
Layer: 0
Undoes
EndUndoes
Redoes
EndRedoes
EndUndoRedoHistory
UndoRedoHistory
Layer: 1
Undoes
EndUndoes
Redoes
EndRedoes
EndUndoRedoHistory
Fore
SplineSet
362 -24 m 0
 230 -24 143 55 104 164 c 0
 91 202 84 242 84 284 c 0
 84 429 156 527 251 571 c 1
 285 588 324 596 367 596 c 0
 476 596 539 545 582 463 c 1
 621 545 685 596 789 596 c 0
 951 596 1032 471 1032 293 c 2
 1032 263 l 1
 631 262 l 1
 631 250 l 1
 633 162 671 98 733 69 c 0
 755 59 780 55 808 55 c 0
 896 55 959 102 995 160 c 1
 1045 110 l 1
 1000 28 920 -24 802 -24 c 0
 689 -24 614 28 579 112 c 1
 544 25 471 -24 362 -24 c 0
367 55 m 0
 484 55 535 157 535 285 c 0
 535 419 484 518 363 518 c 0
 270 518 216 452 195 372 c 0
 187 344 184 314 184 283 c 0
 184 180 221 107 285 73 c 0
 308 61 336 55 367 55 c 0
631 341 m 1
 933 341 l 1
 933 447 888 518 792 518 c 0
 717 518 667 468 645 408 c 1
 638 387 633 364 631 341 c 1
EndSplineSet
EndChar

StartChar: ogonek
Encoding: 731 731 215
Width: 441
VWidth: 0
GlyphClass: 2
Flags: W
HStem: -224 63<192.45 300.791> 0 7<229 302>
VStem: 105 81<-154.098 -69.2872>
AnchorPoint: "ogonek" 150 0 mark 0
LayerCount: 2
UndoRedoHistory
Layer: 0
Undoes
EndUndoes
Redoes
EndRedoes
EndUndoRedoHistory
UndoRedoHistory
Layer: 1
Undoes
EndUndoes
Redoes
EndRedoes
EndUndoRedoHistory
Fore
SplineSet
221 -224 m 0
 167 -224 105 -195 105 -138 c 0
 105 -87 141 -23 229 7 c 1
 302 0 l 1
 198 -34 186 -105 186 -114 c 0
 186 -143 204 -161 233 -161 c 0
 270 -161 276 -154 302 -144 c 1
 302 -207 l 1
 276 -218 258 -224 221 -224 c 0
EndSplineSet
EndChar

StartChar: one
Encoding: 49 49 217
Width: 402
VWidth: 0
GlyphClass: 2
Flags: W
HStem: 0 21G<146 269> 691 20G<146 269>
VStem: 146 123<0 711>
LayerCount: 2
UndoRedoHistory
Layer: 0
Undoes
EndUndoes
Redoes
EndRedoes
EndUndoRedoHistory
UndoRedoHistory
Layer: 1
Undoes
EndUndoes
Redoes
EndRedoes
EndUndoRedoHistory
Fore
SplineSet
146 0 m 1
 146 711 l 1
 269 711 l 1
 269 0 l 1
 146 0 l 1
EndSplineSet
EndChar

StartChar: one.alt
Encoding: 65543 -1 218
Width: 487
VWidth: 0
Flags: W
HStem: 0 21G<230 352> 691 20G<216.5 352>
VStem: 230 122<0 606>
LayerCount: 2
UndoRedoHistory
Layer: 0
Undoes
EndUndoes
Redoes
EndRedoes
EndUndoRedoHistory
UndoRedoHistory
Layer: 1
Undoes
EndUndoes
Redoes
EndRedoes
EndUndoRedoHistory
Fore
SplineSet
230 0 m 1
 230 606 l 1
 198 581 147 558 95 537 c 1
 66 620 l 1
 123 645 200 686 233 711 c 1
 352 711 l 1
 352 0 l 1
 230 0 l 1
EndSplineSet
EndChar

StartChar: onehalf
Encoding: 189 189 219
Width: 2250
VWidth: 0
GlyphClass: 2
Flags: W
HStem: 0 21G<-285 -186.578> 347 67<332 521 848 911 978 1048> 759 67<324.163 438.024>
VStem: 454 67<631.343 743.602> 911 67<415 729>
LayerCount: 2
UndoRedoHistory
Layer: 0
Undoes
EndUndoes
Redoes
EndRedoes
EndUndoRedoHistory
UndoRedoHistory
Layer: 1
Undoes
EndUndoes
Redoes
EndRedoes
EndUndoRedoHistory
Fore
SplineSet
238 347 m 1
 238 410 l 1
 293 466 348 521 394 577 c 0
 413 600 427 621 438 641 c 0
 449 661 454 678 454 694 c 0
 454 737 423 759 382 759 c 0
 333 759 304 724 287 683 c 1
 242 728 l 1
 264 786 313 826 385 826 c 0
 446 826 490 796 511 750 c 0
 518 733 521 715 521 695 c 0
 521 635 494 593 466 555 c 0
 427 504 379 460 332 414 c 1
 521 414 l 1
 521 347 l 1
 238 347 l 1
848 347 m 1
 848 415 l 1
 911 415 l 1
 911 578 l 2
 911 612 910 640 910 670 c 2
 910 729 l 1
 887 716 857 701 831 690 c 1
 832 764 l 1
 867 776 891 792 918 810 c 1
 978 818 l 1
 978 413 l 1
 1048 413 l 1
 1048 347 l 1
 848 347 l 1
-285 0 m 1
 195 823 l 1
 272 823 l 1
 -198 0 l 1
 -285 0 l 1
EndSplineSet
EndChar

StartChar: onequarter
Encoding: 188 188 220
Width: 2000
VWidth: 0
GlyphClass: 2
Flags: W
HStem: 0 21G<-285 -186.591> 347 68<231 294 357 420> 460 62<768 892 960 1022>
VStem: 294 63<415 729> 892 68<353 460 522 713>
LayerCount: 2
UndoRedoHistory
Layer: 0
Undoes
EndUndoes
Redoes
EndRedoes
EndUndoRedoHistory
UndoRedoHistory
Layer: 1
Undoes
EndUndoes
Redoes
EndRedoes
EndUndoRedoHistory
Fore
SplineSet
-285 0 m 1
 195 823 l 1
 272 823 l 1
 246 776 l 1
 267 786 285 797 303 810 c 1
 357 818 l 1
 357 413 l 1
 420 413 l 1
 420 347 l 1
 231 347 l 1
 231 415 l 1
 294 415 l 1
 294 578 l 2
 294 612 294 640 294 670 c 2
 294 729 l 1
 271 716 240 701 215 690 c 1
 215 724 l 1
 -198 0 l 1
 -285 0 l 1
892 353 m 1
 892 460 l 1
 696 460 l 1
 696 513 l 1
 886 810 l 1
 960 810 l 1
 960 522 l 1
 1022 522 l 1
 1028 460 l 1
 958 460 l 1
 958 353 l 1
 892 353 l 1
768 522 m 1
 892 522 l 1
 892 713 l 1
 768 522 l 1
EndSplineSet
EndChar

StartChar: ordfeminine
Encoding: 170 170 221
Width: 494
VWidth: 0
GlyphClass: 2
Flags: W
HStem: 311 59<171.451 294.505> 655 62<175.822 317.885>
VStem: 80 78<383.517 474.967> 334 77<321 363 413.308 506 561.363 639.797>
LayerCount: 2
UndoRedoHistory
Layer: 0
Undoes
EndUndoes
Redoes
EndRedoes
EndUndoRedoHistory
UndoRedoHistory
Layer: 1
Undoes
EndUndoes
Redoes
EndRedoes
EndUndoRedoHistory
Fore
SplineSet
221 311 m 0
 159 311 111 337 90 380 c 0
 83 395 80 411 80 429 c 0
 80 507 150 543 217 554 c 0
 256 560 295 558 334 564 c 1
 334 569 l 2
 334 632 315 655 258 655 c 0
 207 655 169 639 144 601 c 1
 105 644 l 1
 134 693 192 717 261 717 c 0
 347 717 411 673 411 578 c 1
 410 394 l 2
 410 369 411 356 414 321 c 1
 338 321 l 1
 335 363 l 1
 312 332 273 311 221 311 c 0
232 370 m 0
 299 370 331 422 334 492 c 1
 334 506 l 1
 276 493 158 510 158 430 c 0
 158 386 191 370 232 370 c 0
EndSplineSet
EndChar

StartChar: ordmasculine
Encoding: 186 186 222
Width: 556
VWidth: 0
GlyphClass: 2
Flags: W
HStem: 316 61<210.597 345.958> 661 62<210.687 344.596>
VStem: 80 80<431.712 606.134> 397 80<432.576 604.407>
LayerCount: 2
UndoRedoHistory
Layer: 0
Undoes
EndUndoes
Redoes
EndRedoes
EndUndoRedoHistory
UndoRedoHistory
Layer: 1
Undoes
EndUndoes
Redoes
EndRedoes
EndUndoRedoHistory
Fore
SplineSet
279 316 m 0
 158 316 80 394 80 521 c 0
 80 649 158 723 279 723 c 0
 402 723 477 633 477 519 c 0
 477 390 397 316 279 316 c 0
279 377 m 0
 352 377 397 437 397 518 c 0
 397 601 353 661 278 661 c 0
 204 661 160 601 160 520 c 0
 160 437 203 377 279 377 c 0
EndSplineSet
EndChar

StartChar: oslash
Encoding: 248 248 223
Width: 1042
VWidth: 0
GlyphClass: 2
Flags: W
HStem: -11 91<234.302 369.034> 421 91<234.15 368.661>
VStem: 60 121<139.346 362.496> 424 121<142.298 358.183>
LayerCount: 2
UndoRedoHistory
Layer: 0
Undoes
EndUndoes
Redoes
EndRedoes
EndUndoRedoHistory
UndoRedoHistory
Layer: 1
Undoes
EndUndoes
Redoes
EndRedoes
EndUndoRedoHistory
Fore
SplineSet
194 -93 m 1
 143 -75 l 1
 410 602 l 1
 469 584 l 1
 194 -93 l 1
EndSplineSet
Refer: 210 111 N 1 0 0 1 5 0 2
EndChar

StartChar: p
Encoding: 112 112 225
Width: 605
VWidth: 0
GlyphClass: 2
Flags: W
HStem: -11 91<209.305 355.273> 421 91<270.134 383.492> 481 20G<85.3721 144>
VStem: 89 119<-268 2 85.8614 346.369> 430 121<167.518 369.88>
AnchorPoint: "bottom" 403 0 basechar 0
AnchorPoint: "top" 386 750 basechar 0
LayerCount: 2
UndoRedoHistory
Layer: 0
Undoes
EndUndoes
Redoes
EndRedoes
EndUndoRedoHistory
UndoRedoHistory
Layer: 1
Undoes
EndUndoes
Redoes
EndRedoes
EndUndoRedoHistory
Fore
SplineSet
89 -268 m 1xd8
 89 318 l 2
 89 398 44 443 26 458 c 1
 137 501 l 1xb8
 151 491 178 451 188 415 c 1
 217 471 270 512 358 512 c 0
 443 512 551 450 551 280 c 0
 551 108 449 -11 292 -11 c 0
 259 -11 241 -7 208 2 c 1
 208 -268 l 1
 89 -268 l 1xd8
208 92 m 1
 231 85 249 80 275 80 c 0
 376 80 430 157 430 279 c 0
 430 357 392 421 329 421 c 0xd8
 265 421 208 356 208 239 c 2
 208 92 l 1
EndSplineSet
EndChar

StartChar: paragraph
Encoding: 182 182 226
Width: 648
VWidth: 0
GlyphClass: 2
Flags: W
HStem: 640 71<339.717 447 521 581>
VStem: 80 259<445.909 624.291> 265 74<-68 365> 447 74<-68 640>
LayerCount: 2
UndoRedoHistory
Layer: 0
Undoes
EndUndoes
Redoes
EndRedoes
EndUndoRedoHistory
UndoRedoHistory
Layer: 1
Undoes
EndUndoes
Redoes
EndRedoes
EndUndoRedoHistory
Fore
SplineSet
265 -68 m 1xb0
 265 365 l 1xb0
 149 365 80 429 80 538 c 0xd0
 80 689 222 711 359 711 c 2
 581 711 l 1
 581 640 l 1
 521 640 l 1
 521 -68 l 1
 447 -68 l 1
 447 640 l 1
 339 640 l 1
 339 -68 l 1
 265 -68 l 1xb0
EndSplineSet
EndChar

StartChar: parenleft
Encoding: 40 40 227
Width: 400
VWidth: 0
GlyphClass: 2
Flags: W
VStem: 90 133<170.346 485.592>
LayerCount: 2
UndoRedoHistory
Layer: 0
Undoes
EndUndoes
Redoes
EndRedoes
EndUndoRedoHistory
UndoRedoHistory
Layer: 1
Undoes
EndUndoes
Redoes
EndRedoes
EndUndoRedoHistory
Fore
SplineSet
349 764 m 1
 264 582 223 481 223 331 c 0
 223 176 268 71 354 -119 c 1
 243 -119 l 1
 142 70 90 176 90 330 c 0
 90 480 139 582 238 764 c 1
 349 764 l 1
EndSplineSet
EndChar

StartChar: parenright
Encoding: 41 41 228
Width: 400
VWidth: 0
GlyphClass: 2
Flags: W
VStem: 190 133<159.066 471.115>
LayerCount: 2
UndoRedoHistory
Layer: 0
Undoes
EndUndoes
Redoes
EndRedoes
EndUndoRedoHistory
UndoRedoHistory
Layer: 1
Undoes
EndUndoes
Redoes
EndRedoes
EndUndoRedoHistory
Fore
SplineSet
64 -119 m 1
 149 63 190 163 190 313 c 0
 190 468 145 574 59 764 c 1
 169 764 l 1
 270 575 323 469 323 315 c 0
 323 165 274 63 175 -119 c 1
 64 -119 l 1
EndSplineSet
EndChar

StartChar: partialdiff
Encoding: 8706 8706 229
Width: 973
VWidth: 0
GlyphClass: 2
Flags: W
HStem: -21 78<232.528 369.126> 491 77<282.436 427.49> 795 77<245.29 411.712>
VStem: 76 97<125.038 350.992> 512 98<473 661.834>
LayerCount: 2
UndoRedoHistory
Layer: 0
Undoes
EndUndoes
Redoes
EndRedoes
EndUndoRedoHistory
UndoRedoHistory
Layer: 1
Undoes
EndUndoes
Redoes
EndRedoes
EndUndoRedoHistory
Fore
SplineSet
298 -21 m 0
 191 -21 120 42 91 133 c 0
 81 164 76 198 76 234 c 0
 76 384 151 493 245 542 c 0
 277 559 309 568 346 568 c 0
 423 568 474 525 512 473 c 1
 512 484 512 504 512 516 c 0
 512 638 478 734 408 776 c 0
 386 789 363 795 335 795 c 0
 276 795 229 768 193 741 c 1
 188 820 l 1
 227 849 284 872 347 872 c 0
 484 872 558 781 591 656 c 0
 604 607 610 548 610 481 c 0
 610 343 579 227 528 138 c 0
 493 77 450 28 391 -0 c 0
 363 -14 332 -21 298 -21 c 0
299 57 m 0
 362 57 406 102 434 148 c 0
 468 204 492 284 502 369 c 1
 484 420 452 461 407 481 c 0
 392 488 376 491 358 491 c 0
 298 491 254 455 226 414 c 0
 196 371 173 306 173 232 c 0
 173 153 199 95 247 69 c 0
 262 61 279 57 299 57 c 0
EndSplineSet
EndChar

StartChar: percent
Encoding: 37 37 230
Width: 1143
VWidth: 0
GlyphClass: 2
Flags: W
HStem: -11 76<830.417 957.515> 0 21G<289 405.092> 284 76<191.442 319.515> 350 76<829.682 956.135> 645 75<191.818 318.135>
VStem: 50 96<407.811 593.394> 365 91<410.399 595.939> 688 95<115.879 299.179> 1003 91<115.684 301.323>
LayerCount: 2
UndoRedoHistory
Layer: 0
Undoes
EndUndoes
Redoes
EndRedoes
EndUndoRedoHistory
UndoRedoHistory
Layer: 1
Undoes
EndUndoes
Redoes
EndRedoes
EndUndoRedoHistory
Fore
SplineSet
252 284 m 0x2f80
 116 284 50 383 50 500 c 0
 50 637 136 720 255 720 c 0
 385 720 456 632 456 503 c 0
 456 366 370 284 252 284 c 0x2f80
256 360 m 0
 332 360 365 425 365 503 c 0
 365 587 327 645 256 645 c 0
 179 645 146 579 146 501 c 0
 146 422 179 360 256 360 c 0
894 65 m 0x9f80
 970 65 1003 131 1003 209 c 0
 1003 293 965 350 894 350 c 0
 817 350 783 285 783 207 c 0
 783 128 817 65 894 65 c 0x9f80
890 -11 m 0
 754 -11 688 89 688 206 c 0
 688 343 774 426 893 426 c 0
 1023 426 1094 337 1094 208 c 0
 1094 71 1008 -11 890 -11 c 0
289 0 m 1x4f80
 763 718 l 1
 862 718 l 1
 392 0 l 1
 289 0 l 1x4f80
EndSplineSet
EndChar

StartChar: period
Encoding: 46 46 231
Width: 321
VWidth: 0
GlyphClass: 2
Flags: W
HStem: -6 155<104.24 218.625>
VStem: 80 161<17.8481 125.944>
LayerCount: 2
UndoRedoHistory
Layer: 0
Undoes
EndUndoes
Redoes
EndRedoes
EndUndoRedoHistory
UndoRedoHistory
Layer: 1
Undoes
EndUndoes
Redoes
EndRedoes
EndUndoRedoHistory
Fore
SplineSet
161 -6 m 0
 114 -6 80 27 80 73 c 0
 80 118 114 149 161 149 c 0
 208 149 241 117 241 71 c 0
 241 25 208 -6 161 -6 c 0
EndSplineSet
EndChar

StartChar: periodcentered
Encoding: 183 183 232
Width: 386
VWidth: 0
GlyphClass: 2
Flags: W
HStem: 500 121<133 258>
VStem: 133 125<500 621>
LayerCount: 2
UndoRedoHistory
Layer: 0
Undoes
EndUndoes
Redoes
EndRedoes
EndUndoRedoHistory
UndoRedoHistory
Layer: 1
Undoes
EndUndoes
Redoes
EndRedoes
EndUndoRedoHistory
Fore
SplineSet
133 500 m 1
 133 621 l 1
 258 621 l 1
 258 500 l 1
 133 500 l 1
EndSplineSet
EndChar

StartChar: perthousand
Encoding: 8240 8240 233
Width: 2006
VWidth: 0
GlyphClass: 2
Flags: W
HStem: -23 65<627.672 746.465 1052.07 1172.73> 317 66<627.799 748.615 1051.7 1170.15> 417 64<196.131 326.995> 757 65<195.206 327.232>
VStem: 68 83<530.012 708.673> 372 84<528.871 708.657> 504 84<87.1159 271.84> 789 82<88.405 272.931> 929 83<87.1159 271.84> 1212 83<86.76 272.95>
LayerCount: 2
UndoRedoHistory
Layer: 0
Undoes
EndUndoes
Redoes
EndRedoes
EndUndoRedoHistory
UndoRedoHistory
Layer: 1
Undoes
EndUndoes
Redoes
EndRedoes
EndUndoRedoHistory
Fore
SplineSet
261 417 m 0
 136 417 68 495 68 620 c 0
 68 715 113 778 180 806 c 1
 204 817 231 822 262 822 c 0
 388 822 456 744 456 618 c 0
 456 524 410 460 343 432 c 1
 319 421 291 417 261 417 c 0
687 -23 m 0
 573 -23 504 56 504 181 c 0
 504 276 548 339 613 367 c 1
 634 378 661 383 689 383 c 0
 804 383 871 304 871 179 c 0
 871 84 826 21 762 -7 c 1
 740 -18 715 -23 687 -23 c 0
1111 -23 m 0
 997 -23 929 56 929 181 c 0
 929 276 973 339 1038 367 c 1
 1059 378 1085 383 1113 383 c 0
 1229 383 1295 305 1295 179 c 0
 1295 85 1249 21 1185 -7 c 1
 1164 -18 1139 -23 1111 -23 c 0
254 -20 m 1
 167 -20 l 1
 693 815 l 1
 770 815 l 1
 254 -20 l 1
151 621 m 0
 151 543 185 481 263 481 c 0
 338 481 372 544 372 619 c 0
 372 696 338 757 261 757 c 0
 186 757 151 696 151 621 c 0
688 42 m 0
 756 42 789 105 789 180 c 0
 789 258 758 317 688 317 c 0
 619 317 588 257 588 181 c 0
 588 103 618 42 688 42 c 0
1113 42 m 0
 1182 42 1212 104 1212 180 c 0
 1212 257 1181 317 1112 317 c 0
 1043 317 1012 257 1012 181 c 0
 1012 103 1043 42 1113 42 c 0
EndSplineSet
EndChar

StartChar: pi
Encoding: 960 960 234
Width: 1074
VWidth: 0
GlyphClass: 2
Flags: W
HStem: -7 89<568.053 657.549> 483 21G<26.6 51> 518 76<58.9375 185 272.971 466 551 668>
VStem: 108 111<-1.43384 44.6807> 466 91<92.9806 518>
LayerCount: 2
UndoRedoHistory
Layer: 0
Undoes
EndUndoes
Redoes
EndRedoes
EndUndoRedoHistory
UndoRedoHistory
Layer: 1
Undoes
EndUndoes
Redoes
EndRedoes
EndUndoRedoHistory
Fore
SplineSet
586 -7 m 0
 487 -7 466 57 466 157 c 2
 466 518 l 1
 274 518 l 1
 263 353 253 190 219 48 c 0
 214 27 208 10 201 -2 c 1
 108 -2 l 1
 143 58 157 148 167 233 c 0
 178 322 183 421 185 518 c 1
 121 517 73 506 29 483 c 1
 20 558 l 1
 65 593 140 594 217 594 c 2
 668 594 l 1
 668 518 l 1
 551 518 l 1
 557 163 l 1
 557 116 565 82 613 82 c 0
 627 82 642 84 659 89 c 1
 658 72 l 2
 658 67 658 61 658 55 c 0
 658 35 659 18 665 1 c 1
 639 -3 613 -7 586 -7 c 0
EndSplineSet
EndChar

StartChar: plus
Encoding: 43 43 235
Width: 661
VWidth: 0
GlyphClass: 2
Flags: W
HStem: 298 90<74 286 381 587>
VStem: 287 94<66 298 388 621>
LayerCount: 2
UndoRedoHistory
Layer: 0
Undoes
EndUndoes
Redoes
EndRedoes
EndUndoRedoHistory
UndoRedoHistory
Layer: 1
Undoes
EndUndoes
Redoes
EndRedoes
EndUndoRedoHistory
Fore
SplineSet
286 66 m 1
 286 298 l 1
 74 298 l 1
 74 388 l 1
 287 388 l 1
 287 621 l 1
 381 621 l 1
 381 388 l 1
 587 388 l 1
 587 298 l 1
 380 298 l 1
 380 66 l 1
 286 66 l 1
EndSplineSet
EndChar

StartChar: plusminus
Encoding: 177 177 236
Width: 787
VWidth: 0
GlyphClass: 2
Flags: W
HStem: 0 80<109 678> 371 79<109 351 433 675>
VStem: 352 81<157 371 450 664>
LayerCount: 2
UndoRedoHistory
Layer: 0
Undoes
EndUndoes
Redoes
EndRedoes
EndUndoRedoHistory
UndoRedoHistory
Layer: 1
Undoes
EndUndoes
Redoes
EndRedoes
EndUndoRedoHistory
Fore
SplineSet
352 157 m 1
 352 371 l 1
 109 371 l 1
 109 450 l 1
 351 450 l 1
 351 664 l 1
 430 664 l 1
 430 450 l 1
 675 450 l 1
 675 371 l 1
 433 371 l 1
 433 157 l 1
 352 157 l 1
109 0 m 1
 109 80 l 1
 678 80 l 1
 678 0 l 1
 109 0 l 1
EndSplineSet
EndChar

StartChar: product
Encoding: 8719 8719 237
Width: 1305
VWidth: 0
GlyphClass: 2
Flags: W
HStem: 638 83<108 180 277 651 750 814>
VStem: 180 97<-283 638> 651 99<-283 638>
LayerCount: 2
UndoRedoHistory
Layer: 0
Undoes
EndUndoes
Redoes
EndRedoes
EndUndoRedoHistory
UndoRedoHistory
Layer: 1
Undoes
EndUndoes
Redoes
EndRedoes
EndUndoRedoHistory
Fore
SplineSet
180 -283 m 1
 180 638 l 1
 108 638 l 1
 100 721 l 1
 824 721 l 1
 814 638 l 1
 750 638 l 1
 750 -283 l 1
 651 -283 l 1
 651 638 l 1
 277 638 l 1
 277 -283 l 1
 180 -283 l 1
EndSplineSet
EndChar

StartChar: q
Encoding: 113 113 238
Width: 610
VWidth: 0
GlyphClass: 2
Flags: W
HStem: -11 91<225.263 335.318> 421 91<256.208 401.165>
VStem: 55 121<138.557 329.783> 402 119<-174 52 160.371 415.139>
LayerCount: 2
UndoRedoHistory
Layer: 0
Undoes
EndUndoes
Redoes
EndRedoes
EndUndoRedoHistory
UndoRedoHistory
Layer: 1
Undoes
EndUndoes
Redoes
EndRedoes
EndUndoRedoHistory
Fore
SplineSet
535 -270 m 1
 449 -303 402 -258 402 -191 c 2
 402 52 l 1
 369 7 310 -11 263 -11 c 0
 144 -11 55 90 55 217 c 0
 55 386 161 512 324 512 c 0
 386 512 474 487 521 460 c 1
 521 -174 l 1
 648 -110 l 1
 672 -198 l 1
 535 -270 l 1
277 80 m 0
 349 80 402 164 402 258 c 2
 402 409 l 1
 384 416 351 421 325 421 c 0
 242 421 176 347 176 222 c 0
 176 148 223 80 277 80 c 0
EndSplineSet
EndChar

StartChar: question
Encoding: 63 63 239
Width: 471
VWidth: 0
GlyphClass: 2
Flags: W
HStem: -6 155<132.716 247.125> 611 112<103.843 269.387>
VStem: 109 161<17.8481 125.302> 289 135<491.236 591.516>
LayerCount: 2
UndoRedoHistory
Layer: 0
Undoes
EndUndoes
Redoes
EndRedoes
EndUndoRedoHistory
UndoRedoHistory
Layer: 1
Undoes
EndUndoes
Redoes
EndRedoes
EndUndoRedoHistory
Fore
SplineSet
189 -6 m 0
 142 -6 109 27 109 73 c 0
 109 118 142 149 189 149 c 0
 236 149 270 117 270 71 c 0
 270 25 236 -6 189 -6 c 0
160 207 m 1
 160 434 289 471 289 542 c 0
 289 592 250 611 204 611 c 0
 172 611 127 602 91 588 c 1
 76 691 l 1
 126 712 181 723 230 723 c 0
 334 723 424 672 424 555 c 0
 424 381 244 379 216 207 c 1
 160 207 l 1
EndSplineSet
EndChar

StartChar: quotedbl
Encoding: 34 34 241
Width: 397
VWidth: 0
GlyphClass: 2
Flags: W
HStem: 432 279<83 156 248 321>
VStem: 62 273
LayerCount: 2
UndoRedoHistory
Layer: 0
Undoes
EndUndoes
Redoes
EndRedoes
EndUndoRedoHistory
UndoRedoHistory
Layer: 1
Undoes
EndUndoes
Redoes
EndRedoes
EndUndoRedoHistory
Fore
SplineSet
248 432 m 1
 228 711 l 1
 335 711 l 1
 321 432 l 1
 248 432 l 1
83 432 m 1
 62 711 l 1
 170 711 l 1
 156 432 l 1
 83 432 l 1
EndSplineSet
EndChar

StartChar: quotedblbase
Encoding: 8222 8222 242
Width: 872
VWidth: 0
GlyphClass: 2
Flags: W
HStem: -205 252<411 428 604 620>
LayerCount: 2
UndoRedoHistory
Layer: 0
Undoes
EndUndoes
Redoes
EndRedoes
EndUndoRedoHistory
UndoRedoHistory
Layer: 1
Undoes
EndUndoes
Redoes
EndRedoes
EndUndoRedoHistory
Fore
SplineSet
158 -205 m 1
 218 47 l 1
 318 47 l 1
 235 -205 l 1
 158 -205 l 1
355 -205 m 1
 411 47 l 1
 516 47 l 1
 427 -205 l 1
 355 -205 l 1
EndSplineSet
EndChar

StartChar: quotedblleft
Encoding: 8220 8220 243
Width: 872
VWidth: 0
GlyphClass: 2
Flags: W
HStem: 470 253<462 479 650 667>
LayerCount: 2
UndoRedoHistory
Layer: 0
Undoes
EndUndoes
Redoes
EndRedoes
EndUndoRedoHistory
UndoRedoHistory
Layer: 1
Undoes
EndUndoes
Redoes
EndRedoes
EndUndoRedoHistory
Fore
SplineSet
187 470 m 1
 274 723 l 1
 346 723 l 1
 291 470 l 1
 187 470 l 1
378 470 m 1
 462 723 l 1
 539 723 l 1
 479 470 l 1
 378 470 l 1
EndSplineSet
EndChar

StartChar: quotedblright
Encoding: 8221 8221 244
Width: 873
VWidth: 0
GlyphClass: 2
Flags: W
HStem: 458 252<469 485 646 662>
LayerCount: 2
UndoRedoHistory
Layer: 0
Undoes
EndUndoes
Redoes
EndRedoes
EndUndoRedoHistory
UndoRedoHistory
Layer: 1
Undoes
EndUndoes
Redoes
EndRedoes
EndUndoRedoHistory
Fore
SplineSet
232 458 m 1
 292 710 l 1
 392 710 l 1
 308 458 l 1
 232 458 l 1
413 458 m 1
 469 710 l 1
 573 710 l 1
 485 458 l 1
 413 458 l 1
EndSplineSet
EndChar

StartChar: quoteleft
Encoding: 8216 8216 245
Width: 480
VWidth: 0
GlyphClass: 2
Flags: W
HStem: 458 253<205 221>
VStem: 117 164
LayerCount: 2
UndoRedoHistory
Layer: 0
Undoes
EndUndoes
Redoes
EndRedoes
EndUndoRedoHistory
UndoRedoHistory
Layer: 1
Undoes
EndUndoes
Redoes
EndRedoes
EndUndoRedoHistory
Fore
SplineSet
281 711 m 1
 221 458 l 1
 117 458 l 1
 205 711 l 1
 281 711 l 1
EndSplineSet
EndChar

StartChar: quoteright
Encoding: 8217 8217 246
Width: 480
VWidth: 0
GlyphClass: 2
Flags: W
HStem: 458 253<186 201>
VStem: 125 164
LayerCount: 2
UndoRedoHistory
Layer: 0
Undoes
EndUndoes
Redoes
EndRedoes
EndUndoRedoHistory
UndoRedoHistory
Layer: 1
Undoes
EndUndoes
Redoes
EndRedoes
EndUndoRedoHistory
Fore
SplineSet
125 458 m 1
 186 711 l 1
 289 711 l 1
 201 458 l 1
 125 458 l 1
EndSplineSet
EndChar

StartChar: quotesinglbase
Encoding: 8218 8218 247
Width: 480
VWidth: 0
GlyphClass: 2
Flags: W
HStem: -205 252<173 188>
VStem: 112 165
LayerCount: 2
UndoRedoHistory
Layer: 0
Undoes
EndUndoes
Redoes
EndRedoes
EndUndoRedoHistory
UndoRedoHistory
Layer: 1
Undoes
EndUndoes
Redoes
EndRedoes
EndUndoRedoHistory
Fore
SplineSet
112 -205 m 1
 173 47 l 1
 277 47 l 1
 188 -205 l 1
 112 -205 l 1
EndSplineSet
EndChar

StartChar: quotesingle
Encoding: 39 39 248
Width: 232
VWidth: 0
GlyphClass: 2
Flags: W
HStem: 443 280<83 156>
VStem: 62 108<629.667 723>
LayerCount: 2
UndoRedoHistory
Layer: 0
Undoes
EndUndoes
Redoes
EndRedoes
EndUndoRedoHistory
UndoRedoHistory
Layer: 1
Undoes
EndUndoes
Redoes
EndRedoes
EndUndoRedoHistory
Fore
SplineSet
83 443 m 1
 62 723 l 1
 170 723 l 1
 156 443 l 1
 83 443 l 1
EndSplineSet
EndChar

StartChar: r
Encoding: 114 114 249
Width: 434
VWidth: 0
GlyphClass: 2
Flags: W
HStem: 0 21G<103 221> 406 104<274.204 397.714> 481 20G<98.8372 159.5>
VStem: 103 118<0 350.372>
AnchorPoint: "bottom" 165 -1 basechar 0
AnchorPoint: "top" 238 562 basechar 0
LayerCount: 2
UndoRedoHistory
Layer: 0
Undoes
EndUndoes
Redoes
EndRedoes
EndUndoRedoHistory
UndoRedoHistory
Layer: 1
Undoes
EndUndoes
Redoes
EndRedoes
EndUndoRedoHistory
Fore
SplineSet
103 0 m 1xd0
 103 318 l 2
 103 391 64 439 40 458 c 1
 150 501 l 1xb0
 169 482 187 465 201 422 c 1
 230 485 288 510 341 510 c 0
 380 510 400 501 406 499 c 1
 397 398 l 1
 376 403 358 406 341 406 c 0
 248 406 221 316 221 276 c 2
 221 0 l 1
 103 0 l 1xd0
EndSplineSet
EndChar

StartChar: radical
Encoding: 8730 8730 250
Width: 1094
VWidth: 0
GlyphClass: 2
Flags: W
LayerCount: 2
UndoRedoHistory
Layer: 0
Undoes
EndUndoes
Redoes
EndRedoes
EndUndoRedoHistory
UndoRedoHistory
Layer: 1
Undoes
EndUndoes
Redoes
EndRedoes
EndUndoRedoHistory
Fore
SplineSet
362 -131 m 1
 189 352 l 1
 91 336 l 1
 80 400 l 1
 244 429 l 1
 362 79 l 1
 393 -20 l 1
 413 81 l 1
 611 871 l 1
 685 871 l 1
 433 -131 l 1
 362 -131 l 1
EndSplineSet
EndChar

StartChar: registered
Encoding: 174 174 253
Width: 994
VWidth: 0
GlyphClass: 2
Flags: W
HStem: -67 67<378.546 624.861> 332 68<415 509.726> 565 69<413 597.531> 734 68<377.562 622.989>
VStem: 75 73<240.025 497.013> 338 77<108 332 400 565> 622 81<424.16 541.037> 852 73<234.023 494.157>
LayerCount: 2
UndoRedoHistory
Layer: 0
Undoes
EndUndoes
Redoes
EndRedoes
EndUndoRedoHistory
UndoRedoHistory
Layer: 1
Undoes
EndUndoes
Redoes
EndRedoes
EndUndoRedoHistory
Fore
SplineSet
338 108 m 1
 338 634 l 1
 479 634 l 2
 555 634 611 622 648 597 c 0
 685 572 703 534 703 487 c 0
 703 395 640 353 565 342 c 1
 605 300 636 247 667 191 c 0
 681 166 695 139 712 108 c 1
 625 108 l 1
 562 229 l 2
 541 271 518 310 486 332 c 1
 415 332 l 1
 415 108 l 1
 338 108 l 1
502 -67 m 0
 372 -67 274 -11 205 61 c 0
 157 111 115 176 92 253 c 0
 81 290 75 327 75 367 c 0
 75 505 139 604 206 673 c 0
 275 745 371 802 500 802 c 0
 630 802 726 744 795 672 c 0
 843 622 885 559 908 481 c 0
 919 444 925 407 925 367 c 0
 925 229 862 130 795 61 c 1
 727 -11 631 -67 502 -67 c 0
502 0 m 0
 612 0 693 45 751 106 c 1
 808 165 852 249 852 367 c 0
 852 481 807 569 751 628 c 0
 693 689 607 734 500 734 c 0
 393 734 308 689 250 629 c 0
 193 570 148 482 148 368 c 0
 148 253 193 165 250 106 c 1
 308 45 395 0 502 0 c 0
414 400 m 1
 479 400 l 2
 550 400 622 401 622 479 c 0
 622 565 558 565 478 565 c 2
 413 565 l 1
 414 400 l 1
EndSplineSet
EndChar

StartChar: ring
Encoding: 730 730 254
Width: 524
VWidth: 0
GlyphClass: 2
Flags: W
HStem: 988 49<152.685 250.649> 1158 49<153.881 251.509>
VStem: 82 57<1050.65 1144.01> 266 57<1052.09 1143.06>
AnchorPoint: "top" 154 562 mark 0
LayerCount: 2
UndoRedoHistory
Layer: 0
Undoes
EndUndoes
Redoes
EndRedoes
EndUndoRedoHistory
UndoRedoHistory
Layer: 1
Undoes
EndUndoes
Redoes
EndRedoes
EndUndoRedoHistory
Fore
SplineSet
202 1037 m 0
 237 1037 266 1063 266 1098 c 0
 266 1133 238 1158 202 1158 c 0
 167 1158 139 1133 139 1098 c 0
 139 1061 165 1037 202 1037 c 0
203 988 m 0
 124 988 82 1044 82 1097 c 0
 82 1174 151 1207 203 1207 c 0
 280 1207 323 1151 323 1098 c 0
 323 1023 252 988 203 988 c 0
EndSplineSet
EndChar

StartChar: s
Encoding: 115 115 255
Width: 465
VWidth: 0
GlyphClass: 2
Flags: W
HStem: -11 92<137.195 297.878> 423 89<188.773 357.883>
VStem: 308 108<92.6537 179.523>
AnchorPoint: "bottom" 245 0 basechar 0
AnchorPoint: "top" 244 562 basechar 0
LayerCount: 2
UndoRedoHistory
Layer: 0
Undoes
EndUndoes
Redoes
EndRedoes
EndUndoRedoHistory
UndoRedoHistory
Layer: 1
Undoes
EndUndoes
Redoes
EndRedoes
EndUndoRedoHistory
Fore
SplineSet
244 -11 m 0
 170 -11 104 17 74 33 c 1
 99 119 l 1
 116 110 179 81 244 81 c 0
 291 81 308 107 308 135 c 0
 308 173 285 188 208 216 c 1
 102 251 68 298 68 368 c 0
 68 430 113 512 238 512 c 0
 326 512 384 482 397 475 c 1
 370 396 l 1
 328 415 283 423 248 423 c 0
 207 423 181 408 179 376 c 0
 177 346 201 328 264 307 c 0
 378 268 416 229 416 148 c 1
 416 52 358 -11 244 -11 c 0
EndSplineSet
EndChar

StartChar: section
Encoding: 167 167 259
Width: 621
VWidth: 0
GlyphClass: 2
Flags: W
HStem: 604 97<388.023 483>
VStem: 106 127<284.012 377.633> 407 125<278.974 364.043>
LayerCount: 2
UndoRedoHistory
Layer: 0
Undoes
EndUndoes
Redoes
EndRedoes
EndUndoRedoHistory
UndoRedoHistory
Layer: 1
Undoes
EndUndoes
Redoes
EndRedoes
EndUndoRedoHistory
Fore
SplineSet
518 70 m 0
 518 -94 297 -121 123 -55 c 1
 122 52 l 1
 270 -1 381 25 397 65 c 0
 415 110 353 125 295 147 c 1
 178 194 106 217 106 321 c 0
 106 389 164 422 218 445 c 1
 166 472 128 511 128 578 c 0
 128 682 238 723 350 723 c 0
 401 723 437 713 483 701 c 1
 483 604 l 1
 398 639 257 637 252 580 c 0
 249 538 287 519 320 506 c 0
 444 459 532 426 532 325 c 0
 532 257 473 221 422 195 c 1
 474 173 518 136 518 70 c 0
340 245 m 1
 370 264 407 286 407 322 c 0
 407 376 334 386 296 406 c 1
 268 392 233 370 233 330 c 0
 233 274 288 265 340 245 c 1
EndSplineSet
EndChar

StartChar: semicolon
Encoding: 59 59 260
Width: 331
VWidth: 0
GlyphClass: 2
Flags: W
HStem: 380 121<120 245>
VStem: 120 125<104.894 125 380 501>
LayerCount: 2
UndoRedoHistory
Layer: 0
Undoes
EndUndoes
Redoes
EndRedoes
EndUndoRedoHistory
UndoRedoHistory
Layer: 1
Undoes
EndUndoes
Redoes
EndRedoes
EndUndoRedoHistory
Fore
SplineSet
120 380 m 1
 120 501 l 1
 245 501 l 1
 245 380 l 1
 120 380 l 1
76 -145 m 1
 120 125 l 1
 245 125 l 1
 151 -145 l 1
 76 -145 l 1
EndSplineSet
EndChar

StartChar: seven
Encoding: 55 55 261
Width: 612
VWidth: 0
GlyphClass: 2
Flags: W
HStem: 0 21G<168 311.255> 614 97<86 388>
LayerCount: 2
UndoRedoHistory
Layer: 0
Undoes
EndUndoes
Redoes
EndRedoes
EndUndoRedoHistory
UndoRedoHistory
Layer: 1
Undoes
EndUndoes
Redoes
EndRedoes
EndUndoRedoHistory
Fore
SplineSet
168 0 m 1
 388 614 l 1
 86 614 l 1
 86 711 l 1
 530 711 l 1
 530 623 l 1
 304 0 l 1
 168 0 l 1
EndSplineSet
EndChar

StartChar: six
Encoding: 54 54 262
Width: 612
VWidth: 0
GlyphClass: 2
Flags: W
HStem: -12 100<251.756 389.288> 359 99<253.493 395.583>
VStem: 75 121<142.924 366.822> 446 114<145.112 305.743>
LayerCount: 2
UndoRedoHistory
Layer: 0
Undoes
EndUndoes
Redoes
EndRedoes
EndUndoRedoHistory
UndoRedoHistory
Layer: 1
Undoes
EndUndoes
Redoes
EndRedoes
EndUndoRedoHistory
Fore
SplineSet
325 -12 m 0
 205 -12 75 65 75 262 c 0
 75 466 153 669 430 747 c 1
 467 648 l 1
 330 606 243 536 210 406 c 1
 248 442 297 458 346 458 c 0
 452 457 560 376 560 229 c 0
 560 69 437 -12 325 -12 c 0
321 88 m 0
 383 88 446 133 446 221 c 0
 446 317 388 359 325 359 c 0
 263 359 196 319 196 222 c 0
 196 133 259 88 321 88 c 0
EndSplineSet
EndChar

StartChar: slash
Encoding: 47 47 263
Width: 478
VWidth: 0
GlyphClass: 2
Flags: W
HStem: 0 21G<47 152.967>
LayerCount: 2
UndoRedoHistory
Layer: 0
Undoes
EndUndoes
Redoes
EndRedoes
EndUndoRedoHistory
UndoRedoHistory
Layer: 1
Undoes
EndUndoes
Redoes
EndRedoes
EndUndoRedoHistory
Fore
SplineSet
47 0 m 1
 337 718 l 1
 431 718 l 1
 145 0 l 1
 47 0 l 1
EndSplineSet
EndChar

StartChar: sterling
Encoding: 163 163 265
Width: 612
VWidth: 0
GlyphClass: 2
Flags: W
HStem: 0 86<236 555> 330 70<91 183 305 469> 621 102<347.427 496.25>
VStem: 183 122<159.492 330 400 573.694>
LayerCount: 2
UndoRedoHistory
Layer: 0
Undoes
EndUndoes
Redoes
EndRedoes
EndUndoRedoHistory
UndoRedoHistory
Layer: 1
Undoes
EndUndoes
Redoes
EndRedoes
EndUndoRedoHistory
Fore
SplineSet
92 0 m 1
 91 69 l 1
 143 99 183 180 183 264 c 2
 183 330 l 1
 91 330 l 1
 91 400 l 1
 183 400 l 1
 183 430 l 2
 183 604 233 723 397 723 c 0
 462 723 517 703 556 673 c 1
 521 586 l 1
 487 607 448 621 412 621 c 0
 353 621 304 583 304 473 c 2
 304 400 l 1
 469 400 l 1
 469 330 l 1
 305 330 l 1
 305 291 l 2
 305 191 286 114 236 86 c 1
 555 86 l 1
 555 0 l 1
 92 0 l 1
EndSplineSet
EndChar

StartChar: summation
Encoding: 8721 8721 266
Width: 1049
VWidth: 0
GlyphClass: 2
Flags: W
HStem: -283 85<188 679> 640 81<204 653>
LayerCount: 2
UndoRedoHistory
Layer: 0
Undoes
EndUndoes
Redoes
EndRedoes
EndUndoRedoHistory
UndoRedoHistory
Layer: 1
Undoes
EndUndoes
Redoes
EndRedoes
EndUndoRedoHistory
Fore
SplineSet
54 -283 m 1
 54 -231 l 1
 396 222 l 1
 66 667 l 1
 66 721 l 1
 653 721 l 1
 653 640 l 1
 204 640 l 1
 501 227 l 1
 188 -198 l 1
 679 -198 l 1
 679 -283 l 1
 54 -283 l 1
EndSplineSet
EndChar

StartChar: t
Encoding: 116 116 267
Width: 434
VWidth: 0
GlyphClass: 2
Flags: W
HStem: 16 86<320.994 406> 421 80<16 115 233 381>
VStem: 115 118<105.729 421 501 639>
AnchorPoint: "bottom" 245 0 basechar 0
AnchorPoint: "top" 244 562 basechar 0
LayerCount: 2
UndoRedoHistory
Layer: 0
Undoes
EndUndoes
Redoes
EndRedoes
EndUndoRedoHistory
UndoRedoHistory
Layer: 1
Undoes
EndUndoes
Redoes
EndRedoes
EndUndoRedoHistory
Fore
SplineSet
421 16 m 1
 265 -34 115 -12 115 165 c 2
 115 421 l 1
 16 421 l 1
 16 501 l 1
 115 501 l 1
 115 639 l 1
 233 668 l 1
 233 501 l 1
 381 501 l 1
 381 421 l 1
 233 421 l 1
 233 163 l 2
 233 77 299 73 406 102 c 1
 421 16 l 1
EndSplineSet
EndChar

StartChar: thorn
Encoding: 254 254 268
Width: 1033
VWidth: 0
GlyphClass: 2
Flags: W
HStem: -367 21G<141 235> -136 76<322.93 480.865> 403 77<322.55 486.099> 692 20G<141 237>
VStem: 141 94<-367 -45 40.8151 297.775 383 712> 567 100<44.952 304.51>
LayerCount: 2
UndoRedoHistory
Layer: 0
Undoes
EndUndoes
Redoes
EndRedoes
EndUndoRedoHistory
UndoRedoHistory
Layer: 1
Undoes
EndUndoes
Redoes
EndRedoes
EndUndoRedoHistory
Fore
SplineSet
141 -367 m 1
 141 712 l 1
 237 712 l 1
 237 383 l 1
 276 440 331 480 414 480 c 0
 540 480 619 402 651 295 c 0
 662 258 667 221 667 180 c 0
 667 41 610 -61 521 -109 c 1
 491 -126 455 -136 414 -136 c 0
 339 -136 279 -106 235 -45 c 1
 235 -367 l 1
 141 -367 l 1
401 -60 m 0
 518 -60 567 47 567 176 c 0
 567 304 522 403 405 403 c 0
 281 403 235 298 235 161 c 0
 235 62 269 -10 330 -43 c 0
 351 -54 374 -60 401 -60 c 0
EndSplineSet
EndChar

StartChar: three
Encoding: 51 51 269
Width: 612
VWidth: 0
GlyphClass: 2
Flags: W
HStem: -12 102<192.363 375.479> 318 96<212 357.923> 621 102<189.938 363.081>
VStem: 402 116<454.389 583.643> 423 116<134.984 274.067>
LayerCount: 2
UndoRedoHistory
Layer: 0
Undoes
EndUndoes
Redoes
EndRedoes
EndUndoRedoHistory
UndoRedoHistory
Layer: 1
Undoes
EndUndoes
Redoes
EndRedoes
EndUndoRedoHistory
Fore
SplineSet
306 -12 m 0xe8
 218 -12 156 9 90 55 c 1
 135 141 l 1
 194 103 248 90 304 90 c 0
 374 90 423 136 423 200 c 0xe8
 423 302 349 318 264 318 c 2
 212 318 l 1
 212 414 l 1
 257 414 l 2
 315 414 402 426 402 518 c 0
 402 590 348 621 292 621 c 0
 244 621 179 606 138 566 c 1
 83 643 l 1
 146 702 218 723 294 723 c 0
 408 723 518 663 518 532 c 0xf0
 518 436 452 388 407 375 c 1
 454 366 539 322 539 199 c 0
 539 65 431 -12 306 -12 c 0xe8
EndSplineSet
EndChar

StartChar: threequarters
Encoding: 190 190 270
Width: 2000
VWidth: 0
GlyphClass: 2
Flags: W
HStem: 0 21G<-285 -186.56> 336 66<270.653 403.204> 460 62<768 892 960 1022> 557 68<288 396.15> 713 21G<232.667 256.5> 758 68<275.015 401.81>
VStem: 416 69<644.589 744.134> 428 67<426.976 533.8> 892 68<353 460 522 713>
LayerCount: 2
UndoRedoHistory
Layer: 0
Undoes
EndUndoes
Redoes
EndRedoes
EndUndoRedoHistory
UndoRedoHistory
Layer: 1
Undoes
EndUndoes
Redoes
EndRedoes
EndUndoRedoHistory
Fore
SplineSet
-285 0 m 1xfe80
 195 823 l 1
 272 823 l 1
 262 805 l 1
 286 818 315 826 344 826 c 0
 406 826 451 795 472 751 c 0
 480 735 485 716 485 695 c 0xfe80
 485 644 461 611 429 592 c 1
 468 573 495 538 495 479 c 0
 495 407 451 364 400 346 c 0
 381 340 362 336 341 336 c 0
 285 336 242 359 213 392 c 1
 244 446 l 1
 273 417 304 402 338 402 c 0
 386 402 428 427 428 480 c 0xfd80
 428 544 375 557 317 557 c 2
 302 557 l 1
 288 557 l 1
 288 625 l 1
 313 625 l 2
 365 625 416 636 416 694 c 0
 416 740 385 758 343 758 c 0
 301 758 269 735 244 713 c 1
 227 743 l 1
 -198 0 l 1
 -285 0 l 1xfe80
892 353 m 1
 892 460 l 1
 696 460 l 1
 696 513 l 1
 886 810 l 1
 960 810 l 1
 960 522 l 1
 1022 522 l 1
 1028 460 l 1
 958 460 l 1
 958 353 l 1
 892 353 l 1
768 522 m 1
 892 522 l 1
 892 713 l 1
 768 522 l 1
EndSplineSet
EndChar

StartChar: tilde
Encoding: 732 732 271
Width: 562
VWidth: 0
GlyphClass: 2
Flags: W
HStem: 587 72<293.287 397.235> 626 72<183.145 295.689> 690 20G<406 470>
VStem: 114 60<577 617.717> 408 62<668.882 710>
AnchorPoint: "top" 166 562 mark 0
LayerCount: 2
UndoRedoHistory
Layer: 0
Undoes
EndUndoes
Redoes
EndRedoes
EndUndoRedoHistory
UndoRedoHistory
Layer: 1
Undoes
EndUndoes
Redoes
EndRedoes
EndUndoRedoHistory
Fore
SplineSet
114 577 m 1x58
 119 643 157 698 228 698 c 0x58
 268 698 297 677 327 665 c 0
 337 661 348 659 358 659 c 0
 388 659 404 681 408 710 c 1
 470 710 l 1
 463 645 429 587 358 587 c 0xb8
 307 587 276 626 226 626 c 0
 195 626 178 609 174 577 c 1
 114 577 l 1x58
EndSplineSet
EndChar

StartChar: trademark
Encoding: 8482 8482 272
Width: 1545
VWidth: 0
GlyphClass: 2
Flags: W
HStem: 971 58<65 208 272 406>
VStem: 208 64<590 971> 464 63<590 931> 849 70<590 931>
LayerCount: 2
UndoRedoHistory
Layer: 0
Undoes
EndUndoes
Redoes
EndRedoes
EndUndoRedoHistory
UndoRedoHistory
Layer: 1
Undoes
EndUndoes
Redoes
EndRedoes
EndUndoRedoHistory
Fore
SplineSet
464 590 m 1
 464 1029 l 1
 563 1029 l 1
 685 712 l 1
 816 1029 l 1
 919 1029 l 1
 919 590 l 1
 849 590 l 1
 849 931 l 1
 703 590 l 1
 661 590 l 1
 527 931 l 1
 527 590 l 1
 464 590 l 1
208 590 m 1
 208 971 l 1
 65 971 l 1
 65 1029 l 1
 406 1029 l 1
 406 971 l 1
 272 971 l 1
 272 590 l 1
 208 590 l 1
EndSplineSet
EndChar

StartChar: two
Encoding: 50 50 273
Width: 612
VWidth: 0
GlyphClass: 2
Flags: W
HStem: 0 98<253 519> 621 102<215.639 359.559>
VStem: 404 121<423.478 577.571>
LayerCount: 2
UndoRedoHistory
Layer: 0
Undoes
EndUndoes
Redoes
EndRedoes
EndUndoRedoHistory
UndoRedoHistory
Layer: 1
Undoes
EndUndoes
Redoes
EndRedoes
EndUndoRedoHistory
Fore
SplineSet
301 723 m 0
 414 723 525 652 525 501 c 0
 525 421 471 346 400 265 c 2
 253 98 l 1
 519 98 l 1
 519 0 l 1
 103 0 l 1
 103 94 l 1
 320 334 l 2
 377 397 404 459 404 508 c 0
 404 575 358 621 291 621 c 0
 241 621 193 593 149 543 c 1
 73 608 l 1
 129 685 220 723 301 723 c 0
EndSplineSet
EndChar

StartChar: u
Encoding: 117 117 274
Width: 613
VWidth: 0
GlyphClass: 2
Flags: W
HStem: -8 94<525.777 574> 481 20G<72 193.693 394 512>
VStem: 83 118<110.743 500.931> 394 118<117.623 501>
AnchorPoint: "ogonek" 462 0 basechar 0
AnchorPoint: "bottom" 287 0 basechar 0
AnchorPoint: "top" 293 562 basechar 0
LayerCount: 2
UndoRedoHistory
Layer: 0
Undoes
EndUndoes
Redoes
EndRedoes
EndUndoRedoHistory
UndoRedoHistory
Layer: 1
Undoes
EndUndoes
Redoes
EndRedoes
EndUndoRedoHistory
Fore
SplineSet
258 -11 m 0
 149 -11 83 63 83 173 c 2
 83 256 l 2
 83 407 72 501 72 501 c 1
 193 501 l 1
 193 501 201 430 201 270 c 2
 201 184 l 2
 201 122 229 84 282 81 c 0
 349 77 394 111 394 200 c 2
 394 501 l 1
 512 501 l 1
 512 176 l 2
 512 119 517 86 590 86 c 1
 574 -8 l 1
 495 -8 441 0 415 74 c 1
 392 25 335 -11 258 -11 c 0
EndSplineSet
EndChar

StartChar: underscore
Encoding: 95 95 279
Width: 457
VWidth: 0
GlyphClass: 2
Flags: W
HStem: -74 62<-3 460>
LayerCount: 2
UndoRedoHistory
Layer: 0
Undoes
EndUndoes
Redoes
EndRedoes
EndUndoRedoHistory
UndoRedoHistory
Layer: 1
Undoes
EndUndoes
Redoes
EndRedoes
EndUndoRedoHistory
Fore
SplineSet
-3 -74 m 1
 -3 -12 l 1
 460 -12 l 1
 460 -74 l 1
 -3 -74 l 1
EndSplineSet
EndChar

StartChar: uni00B2
Encoding: 178 178 282
Width: 1027
VWidth: 0
GlyphClass: 2
Flags: W
HStem: 244 67<355 564> 656 67<344.556 474.162>
VStem: 491 73<533.48 638.445>
LayerCount: 2
UndoRedoHistory
Layer: 0
Undoes
EndUndoes
Redoes
EndRedoes
EndUndoRedoHistory
UndoRedoHistory
Layer: 1
Undoes
EndUndoes
Redoes
EndRedoes
EndUndoRedoHistory
Fore
SplineSet
251 244 m 1
 251 307 l 1
 312 363 372 418 423 474 c 0
 444 497 461 519 473 539 c 0
 485 559 491 576 491 592 c 0
 491 635 455 656 410 656 c 0
 355 656 323 622 304 581 c 1
 255 625 l 1
 279 683 335 723 414 723 c 0
 482 723 531 692 553 646 c 1
 560 629 564 612 564 592 c 0
 564 532 535 490 504 452 c 0
 462 401 408 357 355 311 c 1
 564 311 l 1
 564 244 l 1
 251 244 l 1
EndSplineSet
EndChar

StartChar: uni00B3
Encoding: 179 179 283
Width: 1027
VWidth: 0
GlyphClass: 2
Flags: W
HStem: 232 66<305.572 452.185> 453 68<323 443.133> 654 69<306.231 448.35>
VStem: 464 77<541.546 638.08> 479 74<325.722 427.332>
LayerCount: 2
UndoRedoHistory
Layer: 0
Undoes
EndUndoes
Redoes
EndRedoes
EndUndoRedoHistory
UndoRedoHistory
Layer: 1
Undoes
EndUndoes
Redoes
EndRedoes
EndUndoRedoHistory
Fore
SplineSet
381 232 m 0xe8
 319 232 273 255 240 288 c 1
 274 343 l 1
 306 314 341 298 378 298 c 0
 432 298 479 323 479 376 c 0xe8
 479 440 419 453 355 453 c 2
 338 453 l 1
 323 453 l 1
 323 521 l 1
 352 521 l 2
 410 521 464 532 464 590 c 0
 464 636 429 654 383 654 c 0
 336 654 301 632 273 610 c 1
 240 665 l 1
 271 696 325 723 385 723 c 0
 453 723 503 692 527 648 c 0
 536 632 541 613 541 592 c 0xf0
 541 541 515 507 479 488 c 1
 522 469 553 434 553 375 c 0
 553 303 503 260 447 242 c 0
 426 236 404 232 381 232 c 0xe8
EndSplineSet
EndChar

StartChar: uni00B9
Encoding: 185 185 284
Width: 1027
VWidth: 0
GlyphClass: 2
Flags: W
HStem: 251 67<358 427 497 567>
VStem: 427 70<319 633>
LayerCount: 2
UndoRedoHistory
Layer: 0
Undoes
EndUndoes
Redoes
EndRedoes
EndUndoRedoHistory
UndoRedoHistory
Layer: 1
Undoes
EndUndoes
Redoes
EndRedoes
EndUndoRedoHistory
Fore
SplineSet
358 251 m 1
 358 319 l 1
 427 319 l 1
 427 482 l 2
 427 516 427 544 427 574 c 2
 427 633 l 1
 402 619 369 605 340 594 c 1
 340 669 l 1
 378 681 407 696 437 714 c 1
 497 723 l 1
 497 318 l 1
 567 318 l 1
 567 251 l 1
 358 251 l 1
EndSplineSet
EndChar

StartChar: uni0216
Encoding: 534 534 307
Width: 1276
VWidth: 0
GlyphClass: 2
Flags: W
HStem: -19 83<375.634 577.062> 1012 62<401.14 543.062>
VStem: 169 99<177.969 829> 329 44<938 981.204> 576 44<938 979.789> 683 97<181.544 829>
LayerCount: 2
UndoRedoHistory
Layer: 0
Undoes
EndUndoes
Redoes
EndRedoes
EndUndoRedoHistory
UndoRedoHistory
Layer: 1
Undoes
EndUndoes
Redoes
EndRedoes
EndUndoRedoHistory
Fore
SplineSet
481 -19 m 0
 282 -19 169 84 169 304 c 2
 169 829 l 1
 268 829 l 1
 268 307 l 2
 268 143 339 64 480 64 c 0
 610 64 683 154 683 303 c 2
 683 829 l 1
 780 829 l 1
 780 310 l 1
 779 104 669 -19 481 -19 c 0
329 938 m 1
 336 1030 388 1074 476 1074 c 0
 561 1074 613 1026 620 938 c 1
 576 938 l 1
 566 986 525 1012 472 1012 c 0
 419 1012 381 988 373 938 c 1
 329 938 l 1
EndSplineSet
EndChar

StartChar: uni0217
Encoding: 535 535 308
Width: 1007
VWidth: 0
GlyphClass: 2
Flags: W
HStem: -19 80<266.37 418.892> -8 81<614.996 649> 766 61<295.14 435.721>
VStem: 125 94<110.089 566.946> 221 45<692 737.387> 468 46<692 733.711> 498 94<143.567 582>
LayerCount: 2
UndoRedoHistory
Layer: 0
Undoes
EndUndoes
Redoes
EndRedoes
EndUndoRedoHistory
UndoRedoHistory
Layer: 1
Undoes
EndUndoes
Redoes
EndRedoes
EndUndoRedoHistory
Fore
SplineSet
329 -19 m 0xba
 229 -19 121 39 125 203 c 2
 128 328 l 2
 133 494 105 567 105 567 c 1
 200 582 l 1
 200 582 227 516 222 335 c 1
 219 203 l 1
 216 91 279 61 341 61 c 0xba
 426 61 498 126 498 238 c 2
 498 582 l 1
 592 582 l 1
 592 158 l 2
 592 91 639 73 669 73 c 1
 649 -8 l 1x7a
 593 -8 532 25 516 88 c 1
 474 17 411 -19 329 -19 c 0xba
221 692 m 1
 228 783 280 827 368 827 c 0
 454 827 507 780 514 692 c 1
 468 692 l 1x3c
 458 740 418 766 365 766 c 0
 312 766 274 742 266 692 c 1
 221 692 l 1
EndSplineSet
EndChar

StartChar: dotlessj
Encoding: 567 567 311
Width: 437
VWidth: 0
GlyphClass: 2
Flags: W
HStem: -369 83<-82.0863 30.3413>
VStem: 76 94<-228.642 465>
AnchorPoint: "top" 126 562 basechar 0
LayerCount: 2
UndoRedoHistory
Layer: 0
Undoes
EndUndoes
Redoes
EndRedoes
EndUndoRedoHistory
UndoRedoHistory
Layer: 1
Undoes
EndUndoes
Redoes
EndRedoes
EndUndoRedoHistory
Fore
SplineSet
-12 -369 m 0
 -37 -369 -61 -366 -83 -361 c 1
 -83 -280 l 1
 -66 -282 -52 -286 -35 -286 c 0
 54 -286 76 -206 76 -105 c 2
 76 465 l 1
 170 465 l 1
 170 -81 l 2
 170 -209 145 -317 56 -356 c 0
 36 -364 14 -369 -12 -369 c 0
EndSplineSet
EndChar

StartChar: dotaccentcmb
Encoding: 775 775 312
Width: 455
VWidth: 0
GlyphClass: 2
Flags: W
HStem: 1072 93<163 255>
VStem: 163 92<1072 1165>
AnchorPoint: "top" 154 503 mark 0
LayerCount: 2
UndoRedoHistory
Layer: 0
Undoes
EndUndoes
Redoes
EndRedoes
EndUndoRedoHistory
UndoRedoHistory
Layer: 1
Undoes
EndUndoes
Redoes
EndRedoes
EndUndoRedoHistory
Fore
SplineSet
163 1072 m 1
 163 1165 l 1
 255 1165 l 1
 255 1072 l 1
 163 1072 l 1
EndSplineSet
EndChar

StartChar: uni0311
Encoding: 785 785 313
Width: 540
VWidth: 0
GlyphClass: 2
Flags: W
HStem: 1122 61<114.903 264.148>
VStem: 33 50<1047 1090.2> 301 50<1047 1085.29>
AnchorPoint: "top" 155 562 mark 0
LayerCount: 2
UndoRedoHistory
Layer: 0
Undoes
EndUndoes
Redoes
EndRedoes
EndUndoRedoHistory
UndoRedoHistory
Layer: 1
Undoes
EndUndoes
Redoes
EndRedoes
EndUndoRedoHistory
Fore
SplineSet
33 1047 m 1
 40 1139 98 1183 193 1183 c 0
 286 1183 344 1135 351 1047 c 1
 301 1047 l 1
 290 1095 245 1122 189 1122 c 0
 133 1122 91 1098 83 1047 c 1
 33 1047 l 1
EndSplineSet
EndChar

StartChar: uni03A9
Encoding: 937 937 314
Width: 1326
VWidth: 0
GlyphClass: 2
Flags: W
HStem: 0 80<91 273 646 820> 750 81<361.29 569.338>
VStem: 97 102<306.799 567.829> 723 101<309.395 570.182>
LayerCount: 2
UndoRedoHistory
Layer: 0
Undoes
EndUndoes
Redoes
EndRedoes
EndUndoRedoHistory
UndoRedoHistory
Layer: 1
Undoes
EndUndoes
Redoes
EndRedoes
EndUndoRedoHistory
Fore
SplineSet
91 0 m 1
 84 80 l 1
 273 79 l 1
 201 138 138 221 111 332 c 0
 102 368 97 405 97 445 c 0
 97 570 144 664 209 726 c 1
 268 788 356 831 466 831 c 0
 578 831 664 784 721 719 c 1
 782 656 824 561 824 442 c 0
 824 356 799 286 767 228 c 1
 734 169 691 119 646 79 c 1
 826 80 l 1
 820 0 l 1
 542 0 l 1
 539 69 l 1
 617 127 680 210 708 321 c 1
 718 356 723 394 723 432 c 0
 723 576 665 678 577 725 c 0
 545 742 507 750 464 750 c 0
 335 750 255 669 219 563 c 0
 206 524 199 481 199 435 c 0
 199 305 248 207 307 138 c 0
 329 112 353 89 380 69 c 1
 382 0 l 1
 91 0 l 1
EndSplineSet
EndChar

StartChar: uni03BC
Encoding: 956 956 315
Width: 1051
VWidth: 0
GlyphClass: 2
Flags: W
HStem: -71 75<294.23 466.293> 510 20G<140 234 553 648>
VStem: 140 94<-174 -41 68.3343 530> 553 95<-58 20 96.3535 530>
LayerCount: 2
UndoRedoHistory
Layer: 0
Undoes
EndUndoes
Redoes
EndRedoes
EndUndoRedoHistory
UndoRedoHistory
Layer: 1
Undoes
EndUndoes
Redoes
EndRedoes
EndUndoRedoHistory
Fore
SplineSet
140 -174 m 1
 140 530 l 1
 234 530 l 1
 234 171 l 2
 234 65 277 4 381 4 c 0
 467 4 520 55 542 120 c 0
 549 143 553 167 553 192 c 2
 553 530 l 1
 648 530 l 1
 648 83 l 2
 648 31 648 -10 652 -58 c 1
 555 -58 l 1
 553 20 l 1
 509 -40 445 -71 360 -71 c 0
 308 -71 267 -61 234 -41 c 1
 234 -174 l 1
 140 -174 l 1
EndSplineSet
EndChar

StartChar: uni2074
Encoding: 8308 8308 316
Width: 763
VWidth: 0
GlyphClass: 2
Flags: W
HStem: 374 61<279 407 475 537>
VStem: 407 68<266 374 435 626>
LayerCount: 2
UndoRedoHistory
Layer: 0
Undoes
EndUndoes
Redoes
EndRedoes
EndUndoRedoHistory
UndoRedoHistory
Layer: 1
Undoes
EndUndoes
Redoes
EndRedoes
EndUndoRedoHistory
Fore
SplineSet
407 266 m 1
 407 374 l 1
 199 374 l 1
 199 426 l 1
 400 723 l 1
 475 723 l 1
 475 435 l 1
 537 435 l 1
 543 374 l 1
 474 374 l 1
 474 266 l 1
 407 266 l 1
279 435 m 1
 407 435 l 1
 407 626 l 1
 279 435 l 1
EndSplineSet
EndChar

StartChar: uniF6C3
Encoding: 65544 -1 317
Width: 520
VWidth: 0
GlyphClass: 2
Flags: W
HStem: -299 265<209 223>
VStem: 148 168
LayerCount: 2
UndoRedoHistory
Layer: 0
Undoes
EndUndoes
Redoes
EndRedoes
EndUndoRedoHistory
UndoRedoHistory
Layer: 1
Undoes
EndUndoes
Redoes
EndRedoes
EndUndoRedoHistory
Fore
SplineSet
148 -299 m 1
 209 -34 l 1
 316 -34 l 1
 223 -299 l 1
 148 -299 l 1
EndSplineSet
EndChar

StartChar: uniFB01
Encoding: 64257 64257 318
Width: 1041
VWidth: 0
GlyphClass: 2
Flags: W
HStem: 0 21G<159 253 516 611> 527 61<43 159 253 516> 750 88<521 608> 791 77<281.188 407.195>
VStem: 159 94<0 527 588 761.77> 516 95<0 527 750 838>
LayerCount: 2
UndoRedoHistory
Layer: 0
Undoes
EndUndoes
Redoes
EndRedoes
EndUndoRedoHistory
UndoRedoHistory
Layer: 1
Undoes
EndUndoes
Redoes
EndRedoes
EndUndoRedoHistory
Fore
SplineSet
159 0 m 1xdc
 159 527 l 1
 43 527 l 1
 43 588 l 1
 159 588 l 1
 160 652 l 1
 161 778 202 868 330 868 c 0
 361 868 383 861 408 856 c 1
 409 782 l 1
 394 788 367 791 346 791 c 0
 269 791 254 744 254 667 c 2
 253 588 l 1
 611 588 l 1
 611 0 l 1
 516 0 l 1
 516 527 l 1
 253 527 l 1
 253 0 l 1
 159 0 l 1xdc
521 750 m 1xec
 521 838 l 1
 608 838 l 1
 608 750 l 1
 521 750 l 1xec
EndSplineSet
EndChar

StartChar: uniFB02
Encoding: 64258 64258 319
Width: 1152
VWidth: 0
GlyphClass: 2
Flags: W
HStem: -386 69<70.7826 105.516> -135 77<606.628 761.525> 398 61<48 165 250 378> 679 71<277.465 395.89>
VStem: 165 85<-247.849 398 459 649.957> 483 94<-27 657.625> 483 86<127.375 729>
LayerCount: 2
UndoRedoHistory
Layer: 0
Undoes
EndUndoes
Redoes
EndRedoes
EndUndoRedoHistory
UndoRedoHistory
Layer: 1
Undoes
EndUndoes
Redoes
EndRedoes
EndUndoRedoHistory
Fore
SplineSet
72 -386 m 1xf8
 60 -317 l 1
 129 -300 165 -239 165 -148 c 2
 165 398 l 1
 48 398 l 1
 48 459 l 1
 165 459 l 1
 165 542 l 2
 165 687 210 750 314 750 c 0
 342 750 372 743 406 730 c 1
 393 669 l 1
 374 674 355 679 336 679 c 0
 275 679 250 642 250 555 c 2
 250 459 l 1
 378 459 l 1
 378 398 l 1
 250 398 l 1
 250 -135 l 2
 250 -278 205 -368 72 -386 c 1xf8
650 -135 m 0
 539 -135 483 -57 483 43 c 2xfc
 483 729 l 1
 569 746 l 1xfa
 577 39 l 1xfc
 577 -26 617 -58 670 -58 c 0
 697 -58 731 -50 759 -41 c 1
 774 -115 l 1
 728 -129 681 -135 650 -135 c 0
EndSplineSet
EndChar

StartChar: v
Encoding: 118 118 320
Width: 505
VWidth: 0
GlyphClass: 2
Flags: W
HStem: 0 21G<203.856 318.465> 481 20G<8 139.396 369.283 498>
LayerCount: 2
UndoRedoHistory
Layer: 0
Undoes
EndUndoes
Redoes
EndRedoes
EndUndoRedoHistory
UndoRedoHistory
Layer: 1
Undoes
EndUndoes
Redoes
EndRedoes
EndUndoRedoHistory
Fore
SplineSet
212 0 m 1
 8 501 l 1
 132 501 l 1
 230 236 l 1
 260 159 l 1
 287 236 l 1
 376 501 l 1
 498 501 l 1
 311 0 l 1
 212 0 l 1
EndSplineSet
EndChar

StartChar: w
Encoding: 119 119 321
Width: 800
VWidth: 0
GlyphClass: 2
Flags: W
HStem: 0 21G<199.415 310.972 502.465 612.146> 481 20G<17 143.868 354.68 445.12 662.358 784>
AnchorPoint: "bottom" 410 0 basechar 0
AnchorPoint: "top" 412 500 basechar 0
LayerCount: 2
UndoRedoHistory
Layer: 0
Undoes
EndUndoes
Redoes
EndRedoes
EndUndoRedoHistory
UndoRedoHistory
Layer: 1
Undoes
EndUndoes
Redoes
EndRedoes
EndUndoRedoHistory
Fore
SplineSet
207 0 m 1
 17 501 l 1
 137 501 l 1
 228 236 l 1
 255 159 l 1
 282 236 l 1
 361 486 l 1
 438 486 l 1
 527 236 l 1
 555 159 l 1
 581 236 l 1
 669 501 l 1
 784 501 l 1
 605 0 l 1
 510 0 l 1
 403 284 l 1
 304 0 l 1
 207 0 l 1
EndSplineSet
EndChar

StartChar: x
Encoding: 120 120 322
Width: 545
VWidth: 0
GlyphClass: 2
Flags: W
HStem: 0 21G<16 159.636 368.818 530> 481 20G<38 190.292 373.329 522>
LayerCount: 2
UndoRedoHistory
Layer: 0
Undoes
EndUndoes
Redoes
EndRedoes
EndUndoRedoHistory
UndoRedoHistory
Layer: 1
Undoes
EndUndoes
Redoes
EndRedoes
EndUndoRedoHistory
Fore
SplineSet
16 0 m 1
 208 261 l 1
 38 501 l 1
 177 501 l 1
 284 340 l 1
 386 501 l 1
 522 501 l 1
 344 254 l 1
 530 0 l 1
 382 0 l 1
 266 176 l 1
 146 0 l 1
 16 0 l 1
EndSplineSet
EndChar

StartChar: y
Encoding: 121 121 323
Width: 612
VWidth: 0
GlyphClass: 2
Flags: W
HStem: -255 95<180.392 355.036> -0 93<236.299 366.347> 481 20G<75 195.976 415 533>
VStem: 86 119<126.172 500.946> 415 118<-99.3281 26 145.406 501>
AnchorPoint: "top" 262 500 basechar 0
LayerCount: 2
UndoRedoHistory
Layer: 0
Undoes
EndUndoes
Redoes
EndRedoes
EndUndoRedoHistory
UndoRedoHistory
Layer: 1
Undoes
EndUndoes
Redoes
EndRedoes
EndUndoRedoHistory
Fore
SplineSet
289 -255 m 0
 233 -255 164 -239 107 -209 c 1
 127 -111 l 1
 169 -138 228 -160 278 -160 c 0
 338 -160 415 -132 415 -5 c 2
 415 102 l 1
 445 100 l 1
 424 52 379 0 276 -0 c 0
 164 0 86 74 86 184 c 2
 86 290 l 2
 86 427 75 501 75 501 c 1
 195 501 l 1
 195 501 205 446 205 296 c 2
 205 196 l 2
 205 131 242 93 298 93 c 0
 375 93 415 147 415 246 c 2
 415 501 l 1
 533 501 l 1
 533 26 l 2
 533 -167 419 -255 289 -255 c 0
EndSplineSet
EndChar

StartChar: yen
Encoding: 165 165 326
Width: 613
VWidth: 0
GlyphClass: 2
Flags: W
HStem: 0 21<245 367> 138 68<58 258 350 549> 297 69<55 258 350 547> 691 20<-3 140.21 471.662 609>
VStem: 245 122<0 287> 258 92<206 297>
LayerCount: 2
UndoRedoHistory
Layer: 0
Undoes
EndUndoes
Redoes
EndRedoes
EndUndoRedoHistory
UndoRedoHistory
Layer: 1
Undoes
EndUndoes
Redoes
EndRedoes
EndUndoRedoHistory
Fore
SplineSet
549 138 m 1xf4
 58 138 l 1
 58 206 l 1
 258 206 l 1
 258 297 l 1
 55 297 l 1
 55 366 l 1
 547 366 l 1
 547 297 l 1
 350 297 l 1
 350 206 l 1
 549 206 l 1
 549 138 l 1xf4
EndSplineSet
Refer: 80 89 N 1 0 0 1 5 0 2
EndChar

StartChar: z
Encoding: 122 122 327
Width: 487
VWidth: 0
GlyphClass: 2
Flags: W
HStem: 0 83<204 444> 418 83<62 293>
AnchorPoint: "bottom" 271 0 basechar 0
AnchorPoint: "top" 247 500 basechar 0
LayerCount: 2
UndoRedoHistory
Layer: 0
Undoes
EndUndoes
Redoes
EndRedoes
EndUndoRedoHistory
UndoRedoHistory
Layer: 1
Undoes
EndUndoes
Redoes
EndRedoes
EndUndoRedoHistory
Fore
SplineSet
60 0 m 1
 60 76 l 1
 293 418 l 1
 62 418 l 1
 62 501 l 1
 434 501 l 1
 434 426 l 1
 204 83 l 1
 444 83 l 1
 444 0 l 1
 60 0 l 1
EndSplineSet
EndChar

StartChar: zero
Encoding: 48 48 331
Width: 612
VWidth: 0
GlyphClass: 2
Flags: W
HStem: -12 102<240.524 366.957> 621 102<238.859 368.641>
VStem: 45 117<199.13 513.746> 451 116<205.89 511.162>
LayerCount: 2
UndoRedoHistory
Layer: 0
Undoes
EndUndoes
Redoes
EndRedoes
EndUndoRedoHistory
UndoRedoHistory
Layer: 1
Undoes
EndUndoes
Redoes
EndRedoes
EndUndoRedoHistory
Fore
SplineSet
305 90 m 0
 400 90 451 202 451 357 c 0
 451 515 400 621 305 621 c 0
 208 621 162 515 162 357 c 0
 162 202 208 90 305 90 c 0
306 -12 m 0
 137 -12 45 141 45 355 c 0
 45 572 137 723 306 723 c 0
 476 723 567 572 567 355 c 0
 567 141 476 -12 306 -12 c 0
EndSplineSet
EndChar

